<?xml version="1.0" encoding="UTF-8" standalone="no"?>
<svg width="100px" height="84px" viewBox="0 0 100 84" version="1.1" xmlns="http://www.w3.org/2000/svg" xmlns:xlink="http://www.w3.org/1999/xlink">
    <!-- Generator: Sketch 41 (35326) - http://www.bohemiancoding.com/sketch -->
    <title>bg_gamemoney</title>
    <desc>Created with Sketch.</desc>
    <defs></defs>
    <g id="Page-1" stroke="none" stroke-width="1" fill="none" fill-rule="evenodd" opacity="0.200000003">
        <g id="未结算收益" transform="translate(-244.000000, -88.000000)" fill="#5A7AF1">
            <g id="list_title" transform="translate(0.000000, 72.000000)">
                <g id="Group-2">
                    <g id="Group-12" transform="translate(244.000000, 16.000000)">
                        <path d="M100,29.5230125 C100,31.3682008 97.71529,34.0920502 97.71529,34.0920502 L54.1300527,81.7154812 L53.8664324,81.7154812 C53.1634447,83.0334729 51.5817224,84 50,84 C48.4182777,84 46.8365553,83.121339 46.1335676,81.7154812 L45.8699473,81.7154812 L2.28470996,34.0920502 C2.28470996,34.0920502 0,31.3682008 0,29.5230125 C0,27.6778242 2.28470996,24.9539748 2.28470996,24.9539748 L20.4745167,2.28451877 C20.4745167,2.28451877 23.198594,0 25.0439368,0 L74.9560634,0 C76.8014061,0 79.5254835,2.28451877 79.5254835,2.28451877 L97.71529,24.9539748 C97.71529,24.9539748 100,27.6778242 100,29.5230125 L100,29.5230125 Z M50.0878734,71.6987448 L60.7205625,31.8075313 L39.4551844,31.8075313 L50.0878734,71.6987448 L50.0878734,71.6987448 Z M26.449912,9.31380742 L14.4991211,24.9539748 L30.8435851,24.9539748 L26.449912,9.31380742 L26.449912,9.31380742 Z M11.9507908,31.8075313 L41.2126537,63.5271966 L32.6010544,31.8075313 L11.9507908,31.8075313 L11.9507908,31.8075313 Z M33.3040421,9.13807525 L37.6098417,25.0418409 L62.565905,25.0418409 L66.8717046,9.13807525 L33.3040421,9.13807525 L33.3040421,9.13807525 Z M73.6379612,9.31380742 L69.3321616,24.9539748 L85.6766256,24.9539748 L73.6379612,9.31380742 L73.6379612,9.31380742 Z M67.5746925,31.8075313 L58.9630931,63.5271966 L88.2249561,31.8075313 L67.5746925,31.8075313 L67.5746925,31.8075313 Z" id="bg_gamemoney"></path>
                    </g>
                </g>
            </g>
        </g>
    </g>
</svg>