<?xml version="1.0" encoding="UTF-8"?>
<svg width="72px" height="17px" viewBox="0 0 72 17" version="1.1" xmlns="http://www.w3.org/2000/svg" xmlns:xlink="http://www.w3.org/1999/xlink">
    <!-- Generator: Sketch 41 (35326) - http://www.bohemiancoding.com/sketch -->
    <title>font_day</title>
    <desc>Created with Sketch.</desc>
    <defs>
        <filter x="-50%" y="-50%" width="200%" height="200%" filterUnits="objectBoundingBox" id="filter-1">
            <feOffset dx="0" dy="0" in="SourceAlpha" result="shadowOffsetOuter1"></feOffset>
            <feGaussianBlur stdDeviation="2" in="shadowOffsetOuter1" result="shadowBlurOuter1"></feGaussianBlur>
            <feColorMatrix values="0 0 0 0 0.219607843   0 0 0 0 0.207843137   0 0 0 0 0.0745098039  0 0 0 0.1 0" type="matrix" in="shadowBlurOuter1" result="shadowMatrixOuter1"></feColorMatrix>
            <feMerge>
                <feMergeNode in="shadowMatrixOuter1"></feMergeNode>
                <feMergeNode in="SourceGraphic"></feMergeNode>
            </feMerge>
        </filter>
    </defs>
    <g id="任务系统" stroke="none" stroke-width="1" fill="none" fill-rule="evenodd">
        <g id="每日任务" transform="translate(-55.000000, -460.000000)" fill="#FDB32C">
            <g filter="url(#filter-1)" transform="translate(8.000000, 448.000000)" id="Title">
                <g>
                    <g id="Group-8" transform="translate(16.000000, 9.000000)">
                        <path d="M32.4941267,7.8046875 L32.6663137,6.46875 C34.2796549,5.95312242 35.4407887,4.94532 36.14975,3.4453125 L39.0325625,3.4453125 L38.7672502,3.8671875 C38.7022499,4.0078132 38.5548557,4.24218586 38.325063,4.5703125 L48.6610005,4.5703125 L48.4435011,6.2578125 L36.7716261,6.2578125 C36.1426648,6.77344008 35.3443396,7.14843633 34.3766266,7.3828125 L46.9625641,7.3828125 L46.4369406,11.4609375 L48.1947531,11.4609375 L47.9863162,13.078125 L46.2285037,13.078125 L45.8931922,15.6796875 L47.1588172,15.6796875 L46.9413179,17.3671875 L45.6756929,17.3671875 C45.4294422,18.9140702 44.5359098,19.6640627 42.9950687,19.6171875 L40.1825687,19.6171875 L40.3819432,18.0703125 L42.0694432,18.0703125 C42.6259043,18.1171877 42.9607967,17.8828151 43.0741304,17.3671875 L35.1991304,17.3671875 C33.5993307,17.4140627 32.9346496,16.5703212 33.2050669,14.8359375 L33.4316287,13.078125 L31.6035037,13.078125 L31.8119406,11.4609375 L33.6400656,11.4609375 L34.1566266,7.453125 C33.6168323,7.64062594 33.0626712,7.75781227 32.4941267,7.8046875 Z M35.8338168,14.625 C35.6902747,15.3750037 35.9965218,15.7265627 36.7525672,15.6796875 L38.6510047,15.6796875 C38.5949625,15.0234342 38.4512137,14.3203162 38.2197539,13.5703125 L40.6806914,13.5703125 C40.9363179,14.1328153 41.1269413,14.8359333 41.2525672,15.6796875 L43.2916297,15.6796875 L43.6269412,13.078125 L36.0331912,13.078125 L35.8338168,14.625 Z M36.5497522,9.0703125 L36.2416281,11.4609375 L38.9838156,11.4609375 C39.0154822,10.8515595 38.8891291,10.195316 38.6047524,9.4921875 L41.0656899,9.4921875 C41.3500666,10.195316 41.5232942,10.8515595 41.5853781,11.4609375 L43.8353781,11.4609375 L44.1435022,9.0703125 L36.5497522,9.0703125 Z M50.4413186,19.125 L52.3444379,4.359375 L65.4928754,4.359375 L63.9613175,16.2421875 C63.7544422,18.2109473 62.693099,19.1718752 60.7772561,19.125 L50.4413186,19.125 Z M53.4713179,17.4375 L59.9400679,17.4375 C60.6431964,17.4375 61.0461089,17.0390665 61.1488175,16.2421875 L61.6291285,12.515625 L54.105691,12.515625 L53.4713179,17.4375 Z M54.9213136,6.1875 L54.3322529,10.7578125 L61.8556904,10.7578125 L62.4447511,6.1875 L54.9213136,6.1875 Z M74.4319387,6.46875 L74.6585005,4.7109375 L81.478813,4.7109375 C82.5569434,4.7109375 83.6327659,4.54687664 84.7063128,4.21875 L84.4616261,6.1171875 C83.493913,6.35156367 82.4710066,6.46875 81.3928762,6.46875 L80.7600637,6.46875 L80.2344403,10.546875 L84.3828778,10.546875 L84.1563159,12.3046875 L80.0078784,12.3046875 L79.3644429,17.296875 L83.0910054,17.296875 L82.873506,18.984375 L72.467256,18.984375 L72.6847554,17.296875 L76.6222554,17.296875 L77.2656909,12.3046875 L72.9063159,12.3046875 L73.1328778,10.546875 L77.4922528,10.546875 L78.0178762,6.46875 L74.4319387,6.46875 Z M68.4300688,19.7578125 L69.698815,9.9140625 C69.1061038,10.1484387 68.4960058,10.3359368 67.8685027,10.4765625 L68.0588147,9 C69.7204893,8.10937055 70.9608929,6.30470109 71.7800626,3.5859375 L74.5222501,3.5859375 C73.8889142,5.2265707 73.2275672,6.53905758 72.5381891,7.5234375 L70.9613188,19.7578125 L68.4300688,19.7578125 Z M101.972566,12.09375 C98.095463,11.6249977 95.4840306,11.1562523 94.1381903,10.6875 C92.3781817,11.2500028 89.5960223,11.7421854 85.7916284,12.1640625 L85.9819403,10.6875 C88.7021621,10.3124981 90.6020388,9.93750187 91.6816274,9.5625 C90.7228724,8.99999719 89.8321518,8.27344195 89.0094391,7.3828125 C88.6692291,7.47656297 88.1180888,7.57031203 87.3560017,7.6640625 C87.0218333,7.71093773 86.7814191,7.75781227 86.6347517,7.8046875 L86.7978762,6.5390625 C88.7453858,5.97655969 90.2550578,4.99219453 91.3269376,3.5859375 L94.2097501,3.5859375 C94.1507915,3.67968797 94.0653757,3.7968743 93.9535002,3.9375 C93.7826661,4.17187617 93.6443343,4.33593703 93.5385004,4.4296875 L101.554125,4.4296875 L101.318501,6.2578125 C99.8187025,7.71094477 98.3408011,8.81249625 96.8847524,9.5625 C98.4649688,10.0312523 100.224326,10.3828113 102.162878,10.6171875 L101.972566,12.09375 Z M85.2256938,19.828125 L85.4341307,18.2109375 C88.4431038,17.4140585 90.2377729,16.218758 90.8181918,14.625 L86.3181918,14.625 L86.5447537,12.8671875 L91.3260037,12.8671875 L91.4981906,11.53125 L94.1700656,11.53125 L93.9978787,12.8671875 L100.396316,12.8671875 L99.8706927,16.9453125 C99.6879842,18.7265714 98.7589313,19.570313 97.0835062,19.4765625 L94.4819437,19.4765625 L94.6903806,17.859375 L96.0966306,17.859375 C96.7997591,17.859375 97.1701719,17.5312533 97.2078802,16.875 L97.4978793,14.625 L93.6306918,14.625 C92.9233976,17.2031379 90.1217596,18.9374955 85.2256938,19.828125 Z M98.0228761,6.1875 L91.6947511,6.1875 C91.2834992,6.46875141 90.8548577,6.70312406 90.4088139,6.890625 L91.8150639,6.890625 C92.6271515,7.50000305 93.4921431,8.06249742 94.4100645,8.578125 C95.6604872,7.96874695 96.8647457,7.17187992 98.0228761,6.1875 Z" id="font_day"></path>
                    </g>
                </g>
            </g>
        </g>
    </g>
</svg>