<?xml version="1.0" encoding="UTF-8"?>
<svg width="73px" height="17px" viewBox="0 0 73 17" version="1.1" xmlns="http://www.w3.org/2000/svg" xmlns:xlink="http://www.w3.org/1999/xlink">
    <!-- Generator: Sketch 41 (35326) - http://www.bohemiancoding.com/sketch -->
    <title>font_beginner</title>
    <desc>Created with Sketch.</desc>
    <defs>
        <filter x="-50%" y="-50%" width="200%" height="200%" filterUnits="objectBoundingBox" id="filter-1">
            <feOffset dx="0" dy="0" in="SourceAlpha" result="shadowOffsetOuter1"></feOffset>
            <feGaussianBlur stdDeviation="2" in="shadowOffsetOuter1" result="shadowBlurOuter1"></feGaussianBlur>
            <feColorMatrix values="0 0 0 0 0.219607843   0 0 0 0 0.207843137   0 0 0 0 0.0745098039  0 0 0 0.1 0" type="matrix" in="shadowBlurOuter1" result="shadowMatrixOuter1"></feColorMatrix>
            <feMerge>
                <feMergeNode in="shadowMatrixOuter1"></feMergeNode>
                <feMergeNode in="SourceGraphic"></feMergeNode>
            </feMerge>
        </filter>
    </defs>
    <g id="任务系统" stroke="none" stroke-width="1" fill="none" fill-rule="evenodd">
        <g id="新手任务" transform="translate(-52.000000, -460.000000)" fill="#1EDABE">
            <g filter="url(#filter-1)" transform="translate(8.000000, 448.000000)" id="Title">
                <g>
                    <g id="Group-8" transform="translate(16.000000, 9.000000)">
                        <g id="font_beginner" transform="translate(28.000000, 3.000000)">
                            <path d="M8.44654705,16.2421875 L8.71573432,14.8359375 C7.33237522,14.2265595 6.79571994,12.867198 7.1057524,10.7578125 L9.0041899,10.7578125 C8.80879538,12.0234438 8.94848789,13.007809 9.42327163,13.7109375 C9.65362687,13.2421852 9.86750378,12.4921927 10.0649088,11.4609375 L12.110732,0.7734375 L15.907607,0.7734375 C17.1173901,0.820312734 18.2503465,0.656251875 19.3065101,0.28125 L18.9565666,2.109375 C17.9652242,2.39062641 16.9539406,2.53125 15.9226854,2.53125 L14.0945604,2.53125 L13.6773202,4.7109375 L18.5991952,4.7109375 L18.2627111,6.46875 L16.9267736,6.46875 L15.1232189,15.890625 L12.8029064,15.890625 L14.6064611,6.46875 L13.3408361,6.46875 L12.4928962,10.8984375 C12.1868846,13.4765754 10.8381151,15.2578076 8.44654705,16.2421875 Z M1.78568302,6.9609375 L2.10870775,5.2734375 L3.58527025,5.2734375 C3.41169429,4.71093469 3.3732529,4.05469125 3.46994492,3.3046875 L5.57931992,3.3046875 C5.58535132,4.00781602 5.62379271,4.66405945 5.69464525,5.2734375 L7.31183275,5.2734375 C7.67183027,4.61718422 7.93807334,3.96094078 8.11056992,3.3046875 L10.2902574,3.3046875 C10.0060645,4.05469125 9.71638413,4.71093469 9.42120775,5.2734375 L10.8274577,5.2734375 L10.504433,6.9609375 L7.48099552,6.9609375 L7.21180826,8.3671875 L9.95399576,8.3671875 L9.63097103,10.0546875 L6.88878353,10.0546875 L6.21581536,13.5703125 C5.94863721,15.2109457 5.02266952,16.0078127 3.4378845,15.9609375 L2.0316345,15.9609375 L2.3277405,14.4140625 L2.960553,14.4140625 C3.52305581,14.4140625 3.83918906,14.109378 3.90896222,13.5 L4.56847103,10.0546875 L1.54503353,10.0546875 L1.86805826,8.3671875 L4.89149576,8.3671875 L5.16068302,6.9609375 L1.78568302,6.9609375 Z M3.00166047,2.8125 L3.32468519,1.125 L5.99656019,1.125 L6.19845064,0.0703125 L8.80001314,0.0703125 L8.59812269,1.125 L11.2699977,1.125 L10.946973,2.8125 L3.00166047,2.8125 Z M4.97379915e-14,15.1875 L0.269187269,13.78125 C1.20963351,13.0312463 1.84785718,12.0234438 2.1838774,10.7578125 L4.0120024,10.7578125 C3.54339833,12.9609485 2.20607757,14.4374962 4.97379915e-14,15.1875 Z M21.6613917,2.671875 L21.9978758,0.9140625 L30.7869383,0.9140625 C32.4185985,0.960937734 34.2870829,0.750002344 36.3924476,0.28125 L36.0425041,2.109375 C34.3300873,2.48437687 32.6301501,2.671875 30.9426417,2.671875 L30.4504542,2.671875 L30.0197546,4.921875 L35.2931921,4.921875 L34.956708,6.6796875 L29.6832705,6.6796875 L29.2256521,9.0703125 L35.7647146,9.0703125 L35.4147712,10.8984375 L28.8757087,10.8984375 L28.4315497,13.21875 C28.1195068,15.0937594 27.0070462,16.0078127 25.0941345,15.9609375 L22.773822,15.9609375 L23.0968467,14.2734375 L24.2218467,14.2734375 C25.0097528,14.3203127 25.461018,13.9218792 25.5756559,13.078125 L25.9928962,10.8984375 L19.0319587,10.8984375 L19.3819021,9.0703125 L26.3428396,9.0703125 L26.800458,6.6796875 L21.034833,6.6796875 L21.3713171,4.921875 L27.1369421,4.921875 L27.5676417,2.671875 L21.6613917,2.671875 Z M44.5428886,2.8828125 L44.8793727,1.125 L51.6996852,1.125 C52.7778156,1.125 53.8638974,0.960939141 54.9579632,0.6328125 L54.5945604,2.53125 C53.612191,2.76562617 52.5819565,2.8828125 51.5038261,2.8828125 L50.8710136,2.8828125 L50.0903705,6.9609375 L54.238808,6.9609375 L53.9023239,8.71875 L49.7538864,8.71875 L48.7982716,13.7109375 L52.5248341,13.7109375 L52.2018094,15.3984375 L41.7955594,15.3984375 L42.1185841,13.7109375 L46.0560841,13.7109375 L47.0116989,8.71875 L42.6523239,8.71875 L42.988808,6.9609375 L47.348183,6.9609375 L48.1288261,2.8828125 L44.5428886,2.8828125 Z M37.7100064,16.171875 L39.5943173,6.328125 C38.9869497,6.56250117 38.3651268,6.7499993 37.7288299,6.890625 L38.0114765,5.4140625 C39.7288454,4.52343305 41.0821013,2.71876359 42.071285,0 L44.8134725,0 C44.077542,1.6406332 43.3341205,2.95312008 42.5831857,3.9375 L40.2412564,16.171875 L37.7100064,16.171875 Z M71.7317645,8.5078125 C67.8839744,8.03906016 65.3018543,7.57031484 63.9853268,7.1015625 C62.1901429,7.66406531 59.3772055,8.15624789 55.5464302,8.578125 L55.8290768,7.1015625 C58.5727488,6.72656062 60.4960753,6.35156437 61.5991141,5.9765625 C60.6755344,5.41405969 59.8302479,4.68750445 59.0632294,3.796875 C58.7171568,3.89062547 58.1601541,3.98437453 57.3922044,4.078125 C57.0551048,4.12500023 56.8117594,4.17187477 56.6621607,4.21875 L56.9044292,2.953125 C58.8871141,2.39062219 60.4583419,1.40625703 61.61816,0 L64.5009725,0 C64.4361514,0.0937504687 64.3434075,0.210936797 64.2227382,0.3515625 C64.0372477,0.585938672 63.8886565,0.749999531 63.7769601,0.84375 L71.7925851,0.84375 L71.4426417,2.671875 C69.8519736,4.12500727 68.3051882,5.22655875 66.8022391,5.9765625 C68.3531428,6.44531484 70.0905161,6.79687383 72.0144112,7.03125 L71.7317645,8.5078125 Z M54.5012345,16.2421875 L54.8107999,14.625 C57.8696047,13.828121 59.7390201,12.6328205 60.4191024,11.0390625 L55.9191024,11.0390625 L56.2555865,9.28125 L61.0368365,9.28125 L61.2925644,7.9453125 L63.9644394,7.9453125 L63.7087115,9.28125 L70.107149,9.28125 L69.3265059,13.359375 C69.0324089,15.1406339 68.0505939,15.9843755 66.3810314,15.890625 L63.7794689,15.890625 L64.0890342,14.2734375 L65.4952842,14.2734375 C66.1984127,14.2734375 66.5893442,13.9453158 66.6680903,13.2890625 L67.0987899,11.0390625 L63.2316024,11.0390625 C62.3630881,13.6172004 59.4529946,15.351558 54.5012345,16.2421875 Z M68.1514136,2.6015625 L61.8232886,2.6015625 C61.394449,2.88281391 60.9511513,3.11718656 60.4933824,3.3046875 L61.8996324,3.3046875 C62.6736135,3.91406555 63.5034303,4.47655992 64.3891077,4.9921875 C65.677637,4.38280945 66.9317264,3.58594242 68.1514136,2.6015625 Z"></path>
                        </g>
                    </g>
                </g>
            </g>
        </g>
    </g>
</svg>