<?xml version="1.0" encoding="UTF-8"?>
<svg width="73px" height="17px" viewBox="0 0 73 17" version="1.1" xmlns="http://www.w3.org/2000/svg" xmlns:xlink="http://www.w3.org/1999/xlink">
    <!-- Generator: Sketch 41 (35326) - http://www.bohemiancoding.com/sketch -->
    <title>font_elite</title>
    <desc>Created with Sketch.</desc>
    <defs>
        <filter x="-50%" y="-50%" width="200%" height="200%" filterUnits="objectBoundingBox" id="filter-1">
            <feOffset dx="0" dy="0" in="SourceAlpha" result="shadowOffsetOuter1"></feOffset>
            <feGaussianBlur stdDeviation="2" in="shadowOffsetOuter1" result="shadowBlurOuter1"></feGaussianBlur>
            <feColorMatrix values="0 0 0 0 0.219607843   0 0 0 0 0.207843137   0 0 0 0 0.0745098039  0 0 0 0.1 0" type="matrix" in="shadowBlurOuter1" result="shadowMatrixOuter1"></feColorMatrix>
            <feMerge>
                <feMergeNode in="shadowMatrixOuter1"></feMergeNode>
                <feMergeNode in="SourceGraphic"></feMergeNode>
            </feMerge>
        </filter>
    </defs>
    <g id="任务系统" stroke="none" stroke-width="1" fill="none" fill-rule="evenodd">
        <g id="新手任务" transform="translate(-54.000000, -918.000000)" fill="#9162FF">
            <g id="精英任务空白" filter="url(#filter-1)" transform="translate(8.000000, 792.000000)">
                <g id="Title">
                    <g id="Group-8" transform="translate(16.000000, 0.000000)">
                        <path d="M36.734249,142.6875 L38.6766611,134.039062 L47.4657236,134.039062 L46.0444465,140.367188 C45.7544247,141.867195 44.8881247,142.59375 43.4455205,142.546875 L41.7580205,142.546875 L42.1054438,141 L42.7382563,141 C43.290231,141.046875 43.5954164,140.83594 43.6538215,140.367188 L43.7169893,140.085938 L39.7091768,140.085938 L39.124874,142.6875 L36.734249,142.6875 Z M36.7662019,139.101562 C36.0497859,138.117183 35.5906896,137.343753 35.3888993,136.78125 L34.062374,142.6875 L32.0233115,142.6875 L33.1919172,137.484375 C32.4236168,138.609381 31.4314832,139.687495 30.2154866,140.71875 L30.7208296,138.46875 C32.0947467,136.734366 33.1639587,135.000009 33.9284977,133.265625 L32.1003727,133.265625 L32.463588,131.648438 L34.5026505,131.648438 L35.6554642,126.515625 L37.6945267,126.515625 L36.541713,131.648438 L38.369838,131.648438 L38.0066227,133.265625 L36.1784977,133.265625 C36.3677564,134.718757 36.7321018,135.914058 37.2715449,136.851562 L36.7662019,139.101562 Z M39.6501212,128.765625 L39.9817525,127.289062 L43.3567525,127.289062 L43.5304642,126.515625 L45.9210892,126.515625 L45.7473775,127.289062 L49.47394,127.289062 L49.1423087,128.765625 L45.4157462,128.765625 L45.2262426,129.609375 L48.6012426,129.609375 L48.2854032,131.015625 L44.9104032,131.015625 L44.7051076,131.929688 L48.7129201,131.929688 L48.3970808,133.335938 L38.3423933,133.335938 L38.6582326,131.929688 L42.3144826,131.929688 L42.5197782,131.015625 L39.3557157,131.015625 L39.6715551,129.609375 L42.8356176,129.609375 L43.0251212,128.765625 L39.6501212,128.765625 Z M33.0275907,131.015625 C32.9568999,130.07812 33.0273347,128.929694 33.2388972,127.570312 L34.6451472,127.570312 C34.48046,128.929694 34.4100252,130.07812 34.4338407,131.015625 L33.0275907,131.015625 Z M36.8244657,131.015625 C37.3373338,129.98437 37.7593276,128.835944 38.0904597,127.570312 L39.5670222,127.570312 C39.5354381,127.710938 39.4698893,127.898436 39.3703739,128.132812 C38.9349633,129.445319 38.5316438,130.406247 38.1604032,131.015625 L36.8244657,131.015625 Z M40.2303118,137.765625 L40.0250162,138.679688 L44.0328287,138.679688 L44.2381243,137.765625 L40.2303118,137.765625 Z M40.7356548,135.515625 L40.5303592,136.429688 L44.5381717,136.429688 L44.7434673,135.515625 L40.7356548,135.515625 Z M49.0810394,138.117188 L49.4916306,136.289062 L51.1791306,136.289062 L52.2056085,131.71875 L57.197796,131.71875 L57.4820515,130.453125 L60.1539265,130.453125 L59.869671,131.71875 L64.8618585,131.71875 L63.8353806,136.289062 L65.5931931,136.289062 L65.1826019,138.117188 L58.9951019,138.117188 C59.6272937,139.476569 61.4739517,140.437497 64.5351313,141 L64.156124,142.6875 C60.4434543,142.312498 57.9979553,141.304696 56.8195537,139.664062 C54.7999113,141.351571 51.8548392,142.359373 47.984249,142.6875 L48.3632563,141 C51.9220128,140.390622 54.2471881,139.429694 55.3388519,138.117188 L49.0810394,138.117188 Z M51.0392435,129.398438 L51.4340427,127.640625 L54.9496677,127.640625 L55.2023392,126.515625 L57.7335892,126.515625 L57.4809177,127.640625 L61.3481052,127.640625 L61.6007767,126.515625 L64.2023392,126.515625 L63.9496677,127.640625 L67.4652927,127.640625 L67.0704935,129.398438 L63.5548685,129.398438 L63.2548211,130.734375 L60.6532586,130.734375 L60.953306,129.398438 L57.0861185,129.398438 L56.7860711,130.734375 L54.2548211,130.734375 L54.5548685,129.398438 L51.0392435,129.398438 Z M54.2875388,133.40625 L53.6400681,136.289062 L56.1713181,136.289062 L56.8187888,133.40625 L54.2875388,133.40625 Z M62.0219138,133.40625 L59.4906638,133.40625 L58.8431931,136.289062 L61.3744431,136.289062 L62.0219138,133.40625 Z M74.859389,129.46875 L75.2541882,127.710938 L82.0745007,127.710938 C83.1526311,127.710938 84.2441556,127.546877 85.349107,127.21875 L84.9227239,129.117188 C83.932579,129.351564 82.8984569,129.46875 81.8203265,129.46875 L81.187514,129.46875 L80.2715799,133.546875 L84.4200174,133.546875 L84.0252182,135.304688 L79.8767807,135.304688 L78.7555509,140.296875 L82.4821134,140.296875 L82.1031062,141.984375 L71.6968562,141.984375 L72.0758634,140.296875 L76.0133634,140.296875 L77.1345932,135.304688 L72.7752182,135.304688 L73.1700174,133.546875 L77.5293924,133.546875 L78.4453265,129.46875 L74.859389,129.46875 Z M67.5856446,142.757812 L69.7965201,132.914062 C69.1813771,133.148439 68.553334,133.335937 67.9123718,133.476562 L68.2440032,132 C69.9909185,131.109371 71.4040441,129.304701 72.4834222,126.585938 L75.2256097,126.585938 C74.4352515,128.226571 73.6482885,129.539058 72.864697,130.523438 L70.1168946,142.757812 L67.5856446,142.757812 Z M101.861657,135.09375 C98.0294172,134.624998 95.4628477,134.156252 94.1618709,133.6875 C92.3480261,134.250003 89.5187606,134.742185 85.6739896,135.164062 L86.0056209,133.6875 C88.7617335,133.312498 90.6975005,132.937502 91.8129799,132.5625 C90.9080611,131.999997 90.086878,131.273442 89.3494059,130.382812 C89.0002232,130.476563 88.4401104,130.570312 87.6690506,130.664062 C87.3303959,130.710938 87.0854954,130.757812 86.9343416,130.804688 L87.2185971,129.539062 C89.2199428,128.97656 90.8238268,127.992195 92.0302972,126.585938 L94.9131097,126.585938 C94.8451784,126.679688 94.7485469,126.796874 94.6232124,126.9375 C94.4299465,127.171876 94.2759126,127.335937 94.1611061,127.429688 L102.176731,127.429688 L101.76614,129.257812 C100.127264,130.710945 98.5439352,131.812496 97.0161049,132.5625 C98.5514578,133.031252 100.277168,133.382811 102.193288,133.617188 L101.861657,135.09375 Z M84.3745401,142.828125 L84.7377554,141.210938 C87.8229964,140.414059 89.7320658,139.218758 90.4650207,137.625 L85.9650207,137.625 L86.3598199,135.867188 L91.1410699,135.867188 L91.4411173,134.53125 L94.1129923,134.53125 L93.8129449,135.867188 L100.211382,135.867188 L99.2954483,139.945312 C98.9422583,141.726571 97.9324523,142.570313 96.2659999,142.476562 L93.6644374,142.476562 L94.0276527,140.859375 L95.4339027,140.859375 C96.1370312,140.859375 96.538848,140.531253 96.6393652,139.875 L97.1447082,137.625 L93.2775207,137.625 C92.3234771,140.203138 89.3558466,141.937496 84.3745401,142.828125 Z M98.4772444,129.1875 L92.1491194,129.1875 C91.7109493,129.468751 91.2598764,129.703124 90.7958872,129.890625 L92.2021372,129.890625 C92.9559023,130.500003 93.7670584,131.062497 94.63563,131.578125 C95.9443752,130.968747 97.2249006,130.17188 98.4772444,129.1875 Z" id="font_elite"></path>
                    </g>
                </g>
            </g>
        </g>
    </g>
</svg>