<svg width="16" height="17" viewBox="0 0 16 17" xmlns="http://www.w3.org/2000/svg"><title>ic_backToTop</title><g transform="rotate(90 8 8)" fill="#FFF" fill-rule="evenodd"><rect x="3.029" y="7.229" width="13.971" height="1.543" rx=".771"/><rect transform="rotate(90 1.014 8)" x="-5.971" y="7.229" width="13.971" height="1.543" rx=".771"/><path d="M4.368 7.96l6.143 6.142c.3.3.302.786 0 1.09a.767.767 0 0 1-1.09.001L2.767 8.541a.767.767 0 0 1-.217-.43.775.775 0 0 1 .21-.726L8.975 1.17a.773.773 0 1 1 1.091 1.09l-5.698 5.7z"/></g></svg>