<?xml version="1.0" encoding="UTF-8" standalone="no"?>
<svg width="24px" height="24px" viewBox="0 0 24 24" version="1.1" xmlns="http://www.w3.org/2000/svg" xmlns:xlink="http://www.w3.org/1999/xlink">
    <!-- Generator: Sketch 40.3 (33839) - http://www.bohemiancoding.com/sketch -->
    <title>ic_coupon_pay_wechat</title>
    <desc>Created with Sketch.</desc>
    <defs></defs>
    <g id="代金券秒杀" stroke="none" stroke-width="1" fill="none" fill-rule="evenodd">
        <g id="订单支付" transform="translate(-16.000000, -398.000000)" fill="#3BBB00">
            <g id="Group-3-Copy-22" transform="translate(0.000000, 382.000000)">
                <g id="Group-6" transform="translate(16.000000, 16.000000)">
                    <path d="M8.72845244,15.2837052 C8.62008386,15.3381217 8.49782771,15.3692813 8.36805859,15.3692813 C8.06845132,15.3692813 7.8075471,15.2055804 7.67049268,14.9635289 L7.61835741,14.849277 L5.43368307,10.0951777 C5.41000587,10.0434708 5.39520767,9.98521588 5.39520767,9.92808991 C5.39520767,9.70929523 5.57438012,9.53136931 5.79567057,9.53136931 C5.88559832,9.53136931 5.96801309,9.56072259 6.03471896,9.61039731 L8.61257092,11.4305253 C8.8010776,11.5529058 9.02555545,11.6244826 9.26801876,11.6244826 C9.41258604,11.6244826 9.55009578,11.5978389 9.67827131,11.551551 L21.8021211,6.2 C19.6290577,3.66003979 16.0499346,2 12,2 C5.37244114,2 0,6.44024517 0,11.9177894 C0,14.9061771 1.6166499,17.5960648 4.14600926,19.4141606 C4.34931421,19.5577657 4.48249825,19.7937208 4.48249825,20.0599323 C4.48249825,20.147992 4.46314669,20.2288264 4.44015254,20.3130477 C4.23798592,21.0606526 3.91447382,22.2573625 3.89899261,22.3133595 C3.87440476,22.4070642 3.83501872,22.5052846 3.83501872,22.6035052 C3.83501872,22.8222998 4.01396348,23 4.23502628,23 C4.32199432,23 4.3925705,22.9679372 4.46587867,22.9259395 L7.09313398,21.4221493 C7.29074733,21.3088006 7.49974384,21.2388044 7.73036861,21.2388044 C7.85285243,21.2388044 7.97123831,21.2575453 8.08302188,21.2914144 C9.30877076,21.640944 10.6308221,21.8351271 12.0002277,21.8351271 C18.6268759,21.8351271 24,17.3946561 24,11.9173378 C24,10.2582011 23.504373,8.6957045 22.6330988,7.3215203 L8.81655885,15.233353 L8.72845244,15.2837052 L8.72845244,15.2837052 L8.72845244,15.2837052 Z" id="Shape"></path>
                </g>
            </g>
        </g>
    </g>
</svg>