<?xml version="1.0" encoding="UTF-8" standalone="no"?>
<svg width="24px" height="24px" viewBox="0 0 24 24" version="1.1" xmlns="http://www.w3.org/2000/svg" xmlns:xlink="http://www.w3.org/1999/xlink">
    <!-- Generator: Sketch 40.3 (33839) - http://www.bohemiancoding.com/sketch -->
    <title>ic_close</title>
    <desc>Created with Sketch.</desc>
    <defs></defs>
    <g id="代金券秒杀" stroke="none" stroke-width="1" fill="none" fill-rule="evenodd">
        <g id="支付成功" transform="translate(-16.000000, -36.000000)" fill="#1ED282">
            <g id="Group">
                <g id="Group-4" transform="translate(0.000000, 24.000000)">
                    <g id="返回" transform="translate(16.000000, 12.000000)">
                        <path d="M13.2910088,12.2303487 L18.2390564,7.28230104 C18.530966,6.99039144 18.5336495,6.51283423 18.2407563,6.21994102 C17.9458211,5.9250058 17.4722283,5.92780885 17.1783963,6.22164087 L12.2303487,11.1696885 L7.28230104,6.22164087 C6.99039144,5.92973127 6.51283423,5.9270478 6.21994102,6.21994102 C5.9250058,6.51487623 5.92780885,6.98846902 6.22164087,7.28230104 L11.1696885,12.2303487 L6.22164087,17.1783963 C5.92973127,17.4703059 5.9270478,17.9478631 6.21994102,18.2407563 C6.51487623,18.5356915 6.98846902,18.5328885 7.28230104,18.2390564 L12.2303487,13.2910088 L17.1783963,18.2390564 C17.4703059,18.530966 17.9478631,18.5336495 18.2407563,18.2407563 C18.5356915,17.9458211 18.5328885,17.4722283 18.2390564,17.1783963 L13.2910088,12.2303487 L13.2910088,12.2303487 Z" id="Combined-Shape"></path>
                    </g>
                </g>
            </g>
        </g>
    </g>
</svg>