<?xml version="1.0" encoding="UTF-8" standalone="no"?>
<svg width="24px" height="24px" viewBox="0 0 24 24" version="1.1" xmlns="http://www.w3.org/2000/svg" xmlns:xlink="http://www.w3.org/1999/xlink">
    <!-- Generator: Sketch 40.3 (33839) - http://www.bohemiancoding.com/sketch -->
    <title>ic_coupon_pay_alipay</title>
    <desc>Created with Sketch.</desc>
    <defs></defs>
    <g id="代金券秒杀" stroke="none" stroke-width="1" fill="none" fill-rule="evenodd">
        <g id="订单支付" transform="translate(-16.000000, -342.000000)" fill="#39A0ED">
            <g id="Group-3-Copy-21" transform="translate(0.000000, 326.000000)">
                <g id="Group-5" transform="translate(16.000000, 16.000000)">
                    <path d="M24,16.4305269 L24,4.61428839 C24,2.0671292 21.933,0 19.3845,0 L4.614,4.94767011e-17 C2.06700001,4.94767011e-17 0,2.0671292 0,4.61428839 L0,19.3857116 C0,21.9328708 2.06550001,24 4.614,24 L19.3845,24 C21.654,24 23.5425,22.3588974 23.928,20.2002625 C22.704,19.6707294 17.4,17.3800862 14.637,16.0615038 C12.534,18.608663 10.332,20.1372586 7.01250001,20.1372586 C3.69300001,20.1372586 1.4775,18.0926308 1.74300002,15.5904744 C1.91850001,13.9478717 3.04500001,11.2627039 7.938,11.7232327 C10.5165,11.9647478 11.697,12.4462779 13.8,13.1408213 C14.3445,12.143259 14.796,11.0451903 15.1395,9.87661728 L5.81399999,9.87661728 L5.81399999,8.95255955 L10.428,8.95255955 L10.428,7.29345584 L4.8,7.29345584 L4.8,6.27639228 L10.428,6.27639228 L10.428,3.88224266 C10.428,3.88224266 10.479,3.50721921 10.893,3.50721921 L13.2,3.50721921 L13.2,6.27639228 L19.2,6.27639228 L19.2,7.29345584 L13.2,7.29345584 L13.2,8.95255955 L18.0945,8.95255955 C17.6445,10.784174 16.962,12.4672792 16.107,13.9373711 C17.529,14.4519033 24,16.4305269 24,16.4305269 L24,16.4305269 L24,16.4305269 L24,16.4305269 Z M6.645,18.5531596 C3.13799999,18.5531596 2.583,16.3390212 2.769,15.4134633 C2.95350001,14.4924058 3.969,13.2908307 5.91899999,13.2908307 C8.15999999,13.2908307 10.167,13.8638665 12.576,15.0369398 C10.884,17.2405775 8.80500001,18.5531596 6.645,18.5531596 L6.645,18.5531596 L6.645,18.5531596 Z" id="Shape"></path>
                </g>
            </g>
        </g>
    </g>
</svg>