<?xml version="1.0" encoding="UTF-8"?>
<svg width="24px" height="24px" viewBox="0 0 24 24" version="1.1" xmlns="http://www.w3.org/2000/svg" xmlns:xlink="http://www.w3.org/1999/xlink">
    <!-- Generator: Sketch 41 (35326) - http://www.bohemiancoding.com/sketch -->
    <title>ic_day</title>
    <desc>Created with Sketch.</desc>
    <defs>
        <filter x="-50%" y="-50%" width="200%" height="200%" filterUnits="objectBoundingBox" id="filter-1">
            <feOffset dx="0" dy="0" in="SourceAlpha" result="shadowOffsetOuter1"></feOffset>
            <feGaussianBlur stdDeviation="2" in="shadowOffsetOuter1" result="shadowBlurOuter1"></feGaussianBlur>
            <feColorMatrix values="0 0 0 0 0.219607843   0 0 0 0 0.207843137   0 0 0 0 0.0745098039  0 0 0 0.1 0" type="matrix" in="shadowBlurOuter1" result="shadowMatrixOuter1"></feColorMatrix>
            <feMerge>
                <feMergeNode in="shadowMatrixOuter1"></feMergeNode>
                <feMergeNode in="SourceGraphic"></feMergeNode>
            </feMerge>
        </filter>
    </defs>
    <g id="任务系统" stroke="none" stroke-width="1" fill="none" fill-rule="evenodd">
        <g id="每日任务" transform="translate(-24.000000, -457.000000)">
            <g filter="url(#filter-1)" transform="translate(8.000000, 448.000000)" id="Title">
                <g>
                    <g id="Group-8" transform="translate(16.000000, 9.000000)">
                        <g id="icon_common_tasks">
                            <rect id="Rectangle-95" fill="#FDB32C" x="0" y="0" width="24" height="24" rx="12"></rect>
                            <g id="Group" stroke-width="1" transform="translate(4.000000, 3.000000)">
                                <path d="M12.0909758,3.1875 C12.5460362,3.1875 12.9153605,2.8305 12.9153605,2.390625 L12.9153605,0.796875 C12.9153605,0.357 12.5460362,0 12.0909758,0 C11.6359154,0 11.2665911,0.357 11.2665911,0.796875 L11.2665911,2.390625 C11.2665911,2.8305 11.6359154,3.1875 12.0909758,3.1875 L12.0909758,3.1875 Z M7.96905222,3.1875 C8.42411259,3.1875 8.79343694,2.8305 8.79343694,2.390625 L8.79343694,0.796875 C8.79343694,0.357 8.42411259,0 7.96905222,0 C7.51399186,0 7.14466751,0.357 7.14466751,0.796875 L7.14466751,2.390625 C7.14466751,2.8305 7.51399186,3.1875 7.96905222,3.1875 L7.96905222,3.1875 Z M15.1137197,1.59375 L13.7397452,1.59375 L13.7397452,2.390625 C13.7397452,3.27064063 13.0016461,3.984375 12.0909758,3.984375 C11.1805803,3.984375 10.4422064,3.270375 10.4422064,2.390625 L10.4422064,1.59375 L9.61782165,1.59375 L9.61782165,2.390625 C9.61782165,3.27064063 8.87972254,3.984375 7.96905222,3.984375 C7.05865671,3.984375 6.3202828,3.270375 6.3202828,2.390625 L6.3202828,1.59375 L5.49589809,1.59375 L5.49589809,2.390625 C5.49589809,3.27064063 4.75779897,3.984375 3.84712866,3.984375 C2.93673314,3.984375 2.19835923,3.270375 2.19835923,2.390625 L2.19835923,1.59375 L0.824384713,1.59375 C0.369324351,1.59375 0,1.95075 0,2.390625 L0,16.203125 C0,16.643 0.369324351,17 0.824384713,17 L15.1137197,17 C15.5687801,17 15.9381044,16.643 15.9381044,16.203125 L15.9381044,2.390625 C15.9381044,1.95075 15.5687801,1.59375 15.1137197,1.59375 L15.1137197,1.59375 Z M3.84712866,3.1875 C4.30218902,3.1875 4.67151337,2.8305 4.67151337,2.390625 L4.67151337,0.796875 C4.67151337,0.357 4.30218902,0 3.84712866,0 C3.3920683,0 3.02274395,0.357 3.02274395,0.796875 L3.02274395,2.390625 C3.02274395,2.8305 3.3920683,3.1875 3.84712866,3.1875 L3.84712866,3.1875 Z" id="Shape" fill="#FFFFFF"></path>
                                <path d="M9.49717075,8.61417045 C9.37311253,8.54385227 9.21486708,8.58654545 9.14338468,8.70457955 L7.48711679,11.4871705 L6.56043555,10.6584205 C6.46253574,10.5579659 6.29859241,10.5529432 6.19421775,10.648375 C6.08984309,10.7412955 6.08440421,10.9020227 6.18230402,11.0024773 L7.36642549,12.0622727 C7.4640663,12.1627273 7.62800963,12.16775 7.73238429,12.0723182 C7.76398158,12.0446932 9.59196263,8.95571591 9.59196263,8.95571591 C9.66344503,8.83768182 9.62096998,8.68197727 9.49717075,8.61417045 L9.49717075,8.61417045 Z M7.93621272,13.8704545 C5.93366959,13.8704545 4.31029396,12.2958295 4.31029396,10.3545455 C4.31029396,8.41326136 5.93366959,6.83863636 7.93621272,6.83863636 C9.93875586,6.83863636 11.5621315,8.41326136 11.5621315,10.3545455 C11.5621315,12.2958295 9.93875586,13.8704545 7.93621272,13.8704545 L7.93621272,13.8704545 Z M7.93621272,6.33636364 C5.64774,6.33636364 3.79230557,8.1345 3.79230557,10.3545455 C3.79230557,12.5745909 5.64774,14.3727273 7.93621272,14.3727273 C10.2246855,14.3727273 12.0801199,12.5745909 12.0801199,10.3545455 C12.0801199,8.1345 10.2246855,6.33636364 7.93621272,6.33636364 L7.93621272,6.33636364 Z" id="Fill-22" stroke="#FFB406" stroke-width="0.3" fill="#FFB406"></path>
                            </g>
                        </g>
                    </g>
                </g>
            </g>
        </g>
    </g>
</svg>