<?xml version="1.0" encoding="UTF-8"?>
<svg width="24px" height="24px" viewBox="0 0 24 24" version="1.1" xmlns="http://www.w3.org/2000/svg" xmlns:xlink="http://www.w3.org/1999/xlink">
    <!-- Generator: Sketch 41 (35326) - http://www.bohemiancoding.com/sketch -->
    <title>ic_elite</title>
    <desc>Created with Sketch.</desc>
    <defs>
        <filter x="-50%" y="-50%" width="200%" height="200%" filterUnits="objectBoundingBox" id="filter-1">
            <feOffset dx="0" dy="0" in="SourceAlpha" result="shadowOffsetOuter1"></feOffset>
            <feGaussianBlur stdDeviation="2" in="shadowOffsetOuter1" result="shadowBlurOuter1"></feGaussianBlur>
            <feColorMatrix values="0 0 0 0 0.219607843   0 0 0 0 0.207843137   0 0 0 0 0.0745098039  0 0 0 0.1 0" type="matrix" in="shadowBlurOuter1" result="shadowMatrixOuter1"></feColorMatrix>
            <feMerge>
                <feMergeNode in="shadowMatrixOuter1"></feMergeNode>
                <feMergeNode in="SourceGraphic"></feMergeNode>
            </feMerge>
        </filter>
    </defs>
    <g id="任务系统" stroke="none" stroke-width="1" fill="none" fill-rule="evenodd">
        <g id="新手任务" transform="translate(-24.000000, -915.000000)">
            <g id="精英任务空白" filter="url(#filter-1)" transform="translate(8.000000, 792.000000)">
                <g id="Title">
                    <g id="Group-8" transform="translate(16.000000, 0.000000)">
                        <g id="icon_new_task" transform="translate(0.000000, 123.000000)">
                            <rect id="Rectangle-95" fill="#9162FF" x="0" y="0" width="24" height="24" rx="12"></rect>
                            <g id="任务" stroke-width="1" transform="translate(4.000000, 4.000000)" fill="#FFFFFF">
                                <path d="M11.946851,12.6953437 C11.2542521,13.376159 10.5170466,14.0831781 10.5170466,14.0831781 L9.24600281,11.8878764 C10.5770015,11.5598429 11.7276559,10.7824615 12.5300923,9.72460173 L13.9200866,12.1246817 C13.9200866,12.1246817 12.9291521,12.4129243 11.946851,12.6953437 L11.946851,12.6953437 Z M7.82914867,9.53632211 C5.9748636,9.53632211 4.4716744,8.01552737 4.4716744,6.13952467 C4.4716744,4.26352198 5.9748636,2.74272724 7.82914867,2.74272724 C9.68343374,2.74272724 11.1866229,4.26352198 11.1866229,6.13952467 C11.1866229,8.01552737 9.68343374,9.53632211 7.82914867,9.53632211 L7.82914867,9.53632211 Z M5.1412507,14.0831781 C5.1412507,14.0831781 4.40404528,13.376159 3.7114463,12.6953437 C2.72914526,12.4129243 1.73821071,12.1246817 1.73821071,12.1246817 L3.12820506,9.72460173 C3.93064141,10.7824615 5.0812958,11.5598429 6.41229453,11.8878764 L5.1412507,14.0831781 L5.1412507,14.0831781 Z M13.1152521,8.77738051 C13.5004023,7.99563184 13.7229549,7.12022862 13.7229549,6.19096189 C13.7229549,2.94653509 11.0839801,0.31644336 7.82914867,0.31644336 C4.57431719,0.31644336 1.93534242,2.94653509 1.93534242,6.19096189 C1.93534242,7.12022862 2.157895,7.99563184 2.54304526,8.77738051 L0.150605027,12.9069157 C0.150605027,12.9069157 1.66770375,13.2150537 3.20686588,13.5353232 C4.23329373,14.6912048 5.25492519,15.8446602 5.25492519,15.8446602 L7.45455047,12.0470407 C7.57925665,12.0548048 7.70252392,12.0659657 7.82914867,12.0659657 C7.95577341,12.0659657 8.07904068,12.0548048 8.20374687,12.0470407 L10.4033721,15.8446602 C10.4033721,15.8446602 11.4250036,14.6912048 12.4514314,13.5353232 C13.9905936,13.2150537 15.5076923,12.9069157 15.5076923,12.9069157 L13.1152521,8.77738051 L13.1152521,8.77738051 Z M7.82914867,3.71324079 C6.50438525,3.71324079 5.43095276,4.79924546 5.43095276,6.13952467 C5.43095276,7.47980389 6.50438525,8.56580855 7.82914867,8.56580855 C9.15391208,8.56580855 10.2273446,7.47980389 10.2273446,6.13952467 C10.2273446,4.79924546 9.15391208,3.71324079 7.82914867,3.71324079 L7.82914867,3.71324079 Z" id="Fill-157"></path>
                            </g>
                        </g>
                    </g>
                </g>
            </g>
        </g>
    </g>
</svg>