<?xml version="1.0" encoding="UTF-8" standalone="no"?>
<svg width="56px" height="56px" viewBox="0 0 56 56" version="1.1" xmlns="http://www.w3.org/2000/svg" xmlns:xlink="http://www.w3.org/1999/xlink">
    <!-- Generator: Sketch 41 (35326) - http://www.bohemiancoding.com/sketch -->
    <title>ic_gamemoney_nothing</title>
    <desc>Created with Sketch.</desc>
    <defs></defs>
    <g id="Page-1" stroke="none" stroke-width="1" fill="none" fill-rule="evenodd">
        <g id="查询结果-无明细" transform="translate(-152.000000, -392.000000)" fill="#E2E2E2">
            <g id="Group-2" transform="translate(138.000000, 392.000000)">
                <path d="M49.1702746,14 L27.5982514,14 C26.8526684,14 26.25,14.784 26.25,15.75 C26.25,16.71775 26.8526684,17.5 27.5982514,17.5 L49.1702746,17.5 C49.9158577,17.5 50.5185261,16.71775 50.5185261,15.75 C50.5185261,14.784 49.9158577,14 49.1702746,14 L49.1702746,14 Z M66.5,49 C66.5,50.92325 64.5995,52.521 62.67975,52.521 L20.9545,52.521 C19.03475,52.521 17.47725,50.9635 17.47725,49.04025 L17.47725,7.28875 C17.47725,5.3655 19.0785,3.5 21,3.5 L63,3.5 C64.9215,3.5 66.5,5.0785 66.5,7 L66.5,49 L66.5,49 Z M63,0 L21,0 C17.1605,0 14,3.44575 14,7.28875 L14,49.04025 C14,52.885 17.11325,56 20.9545,56 L62.67975,56 C66.521,56 70,52.843 70,49 L70,7 C70,3.157 66.8395,0 63,0 L63,0 Z M49.1702746,35 L27.5982514,35 C26.8526684,35 26.25,35.784 26.25,36.75 C26.25,37.71775 26.8526684,38.5 27.5982514,38.5 L49.1702746,38.5 C49.9158577,38.5 50.5185261,37.71775 50.5185261,36.75 C50.5185261,35.784 49.9158577,35 49.1702746,35 L49.1702746,35 Z M49.1702746,24.5 L27.5982514,24.5 C26.8526684,24.5 26.25,25.284 26.25,26.25 C26.25,27.21775 26.8526684,28 27.5982514,28 L49.1702746,28 C49.9158577,28 50.5185261,27.21775 50.5185261,26.25 C50.5185261,25.284 49.9158577,24.5 49.1702746,24.5 L49.1702746,24.5 Z M57.4727304,14 L53.0364174,14 C52.8830873,14 52.7591478,14.784 52.7591478,15.75 C52.7591478,16.71775 52.8830873,17.5 53.0364174,17.5 L57.4727304,17.5 C57.6260605,17.5 57.75,16.71775 57.75,15.75 C57.75,14.784 57.6260605,14 57.4727304,14 L57.4727304,14 Z M57.4727304,35 L53.0364174,35 C52.8830873,35 52.7591478,35.784 52.7591478,36.75 C52.7591478,37.71775 52.8830873,38.5 53.0364174,38.5 L57.4727304,38.5 C57.6260605,38.5 57.75,37.71775 57.75,36.75 C57.75,35.784 57.6260605,35 57.4727304,35 L57.4727304,35 Z M57.4727304,24.5 L53.0364174,24.5 C52.8830873,24.5 52.7591478,25.284 52.7591478,26.25 C52.7591478,27.21775 52.8830873,28 53.0364174,28 L57.4727304,28 C57.6260605,28 57.75,27.21775 57.75,26.25 C57.75,25.284 57.6260605,24.5 57.4727304,24.5 L57.4727304,24.5 Z" id="ic_gamemoney_nothing"></path>
            </g>
        </g>
    </g>
</svg>