<?xml version="1.0" encoding="UTF-8" standalone="no"?>
<svg width="22px" height="16px" viewBox="0 0 22 16" version="1.1" xmlns="http://www.w3.org/2000/svg" xmlns:xlink="http://www.w3.org/1999/xlink">
    <!-- Generator: Sketch 41 (35326) - http://www.bohemiancoding.com/sketch -->
    <title>ic_gulid_gamemoney</title>
    <desc>Created with Sketch.</desc>
    <defs>
        <path d="M20.9319671,6.72287775 C20.887005,6.5866494 20.838261,6.43855734 20.7853151,6.27369242 C20.4781442,5.32173039 20.0944959,4.13658472 19.4793138,3.25989603 C18.6611721,2.09520506 17.3072673,1.35065377 15.667202,1.16369776 C15.162114,1.10519729 12.7131515,1.09906087 11.6832258,1.09906087 C10.6533001,1.09906087 8.20391741,1.10519727 7.69924961,1.16287955 C6.05960453,1.34983556 4.70569973,2.09438687 3.88713781,3.25907782 C3.27111532,4.13535743 2.88872757,5.3192758 2.5714718,6.30028352 C2.52356827,6.44919379 2.47818599,6.58992216 2.43406433,6.72083228 C2.10966505,7.68752168 1.77265956,8.7298935 1.5083498,9.80294739 C1.22765197,10.9422745 0.705335509,13.0642457 2.06512318,14.5504847 C2.71938442,15.2663994 3.64131711,15.660357 4.66115787,15.660357 C4.88470762,15.660357 5.10993821,15.6407205 5.32886572,15.6010384 C6.84328933,15.3347181 7.98625053,14.4334837 8.90440136,13.5874771 C9.5515191,12.991427 10.3011672,12.7079247 11.3369758,12.6670153 C11.4306818,12.6637426 11.9714873,12.6629244 12.0878845,12.6694699 C13.0989009,12.7246976 13.8300599,13.0081998 14.4599492,13.5882953 C15.3793607,14.4330747 16.5214815,15.334309 18.0342242,15.6010384 C18.2548326,15.6403114 18.4804834,15.6599479 18.7048735,15.6599479 C19.7242941,15.6599479 20.6458066,15.2659903 21.2996476,14.5504847 C22.6606959,13.0638366 22.1383794,10.9422745 21.8572614,9.80131101 C21.5942122,8.73357536 21.2567865,7.68915806 20.9319671,6.72287775 Z" id="path-1"></path>
        <mask id="mask-2" maskContentUnits="userSpaceOnUse" maskUnits="objectBoundingBox" x="0" y="0" width="21.022852" height="14.5612961" fill="white">
            <use xlink:href="#path-1"></use>
        </mask>
    </defs>
    <g id="Page-1" stroke="none" stroke-width="1" fill="none" fill-rule="evenodd">
        <g id="会长服务号" transform="translate(-17.000000, -355.000000)">
            <g id="Group-3-Copy-21" transform="translate(0.000000, 340.000000)">
                <g id="4" transform="translate(16.000000, 11.000000)">
                    <g id="ic_game_newgame" transform="translate(0.253333, 3.620000)">
                        <use id="Shape" stroke="#618BF3" mask="url(#mask-2)" stroke-width="3" xlink:href="#path-1"></use>
                        <g id="Group-8" transform="translate(5.560000, 4.373333)" fill="#618BF3">
                            <rect id="Rectangle-543" x="0" y="1.87333333" width="4.5" height="1.5" rx="0.75"></rect>
                            <rect id="Rectangle-544" x="1.47131022" y="0.293380534" width="1.5" height="4.5" rx="0.75"></rect>
                        </g>
                        <rect id="Rectangle-545" fill="#618BF3" x="13.18" y="5.06" width="2" height="2" rx="1"></rect>
                        <rect id="Rectangle-545" fill="#618BF3" x="15.5533333" y="7.43333333" width="2" height="2" rx="1"></rect>
                    </g>
                </g>
            </g>
        </g>
    </g>
</svg>