<?xml version="1.0" encoding="UTF-8" standalone="no"?>
<svg width="16px" height="16px" viewBox="0 0 16 16" version="1.1" xmlns="http://www.w3.org/2000/svg" xmlns:xlink="http://www.w3.org/1999/xlink">
    <!-- Generator: Sketch 41 (35326) - http://www.bohemiancoding.com/sketch -->
    <title>ic_guild_service</title>
    <desc>Created with Sketch.</desc>
    <defs>
        <linearGradient x1="19.1080061%" y1="10.1051656%" x2="85.3990288%" y2="100%" id="linearGradient-1">
            <stop stop-color="#3FE5FC" offset="0%"></stop>
            <stop stop-color="#1E77F6" offset="100%"></stop>
        </linearGradient>
    </defs>
    <g id="Page-1" stroke="none" stroke-width="1" fill="none" fill-rule="evenodd">
        <g id="会长服务号" transform="translate(-16.000000, -578.000000)" fill="url(#linearGradient-1)">
            <g id="Group-12-Copy" transform="translate(0.000000, 562.000000)">
                <g id="Group-16" transform="translate(16.000000, 16.000000)">
                    <path d="M13.5497593,8.7693563 C13.5528614,8.64320955 13.5532263,8.51488183 13.5506109,8.38624908 C13.5848248,6.6461989 13.0685594,5.17938277 12.0573022,4.14406747 C11.5749771,3.65037022 10.9883527,3.27141146 10.3161479,3.01327659 C10.2118638,2.07334539 9.19409833,1.33333333 7.95788072,1.33333333 C6.72172394,1.33333333 5.70403449,2.07334539 5.59967441,3.01327659 C4.92754562,3.27141146 4.34098205,3.65037024 3.85873296,4.14406747 C2.8471868,5.17944377 2.33067815,6.64330108 2.36513538,8.37811991 C2.36209415,8.5420756 2.36309775,8.6959804 2.36817662,8.84639258 C2.10606752,9.11099416 1.90073834,9.51061897 2.05077782,10.0713932 C2.16231522,10.4881609 2.46967793,10.8003782 2.84683706,10.9370639 C3.03852629,11.0555848 3.26362352,11.1246139 3.50447435,11.1262306 C3.98540052,13.2350362 5.73107111,14.6666667 8.0106158,14.6666667 C10.285994,14.6666667 12.0320904,13.231452 12.5102338,11.1214111 C12.5249382,11.1246292 12.540266,11.1264747 12.5559284,11.1264747 C12.8562354,11.1264747 13.1324711,11.021238 13.3503606,10.8461028 C13.6351269,10.6840078 13.8578975,10.4127718 13.9492107,10.0714084 C14.1146389,9.45327263 13.8481656,9.03081603 13.5497593,8.7693563 L13.5497593,8.7693563 L13.5497593,8.7693563 Z M5.96880468,6.25357461 C6.00504103,6.31435259 6.87381627,7.7510924 8.5105497,8.3738647 C8.96214312,8.5457055 9.42479145,8.6439874 9.87224879,8.73895968 C10.7697333,8.92966683 11.6176152,9.1097893 12.1952528,9.86197219 C12.2012744,9.86978106 12.2079803,9.87704087 12.214884,9.88384312 C12.2139716,9.92177408 12.2139716,9.92185033 12.2139716,9.92185033 C12.2139716,10.2022679 12.1928806,10.4732447 12.1521584,10.7336826 C11.4095642,11.9236958 10.177437,12.7035453 8.65105489,12.8715426 C8.5373126,12.7209017 8.30558546,12.6170987 8.0364055,12.6170987 C7.65471493,12.6170987 7.34494964,12.8243691 7.34494964,13.0793622 C7.34494964,13.3349805 7.65471494,13.5417477 8.0364055,13.5417477 C8.37859038,13.5417477 8.66046752,13.3747569 8.71531625,13.1563375 C9.20758624,13.0996164 9.67700131,12.9816598 10.117038,12.8033828 C10.7456011,12.5488016 11.2995474,12.177911 11.7632297,11.7009296 C11.8374967,11.6247321 11.9087529,11.5457589 11.9776522,11.4647419 C11.4249984,13.1530278 9.94758026,14.2383229 8.01876632,14.2384907 L8.01876632,14.2384907 C8.0152841,14.2383077 8.00582585,14.2383077 8.00238925,14.2383077 C5.52750585,14.2383077 3.79900306,12.4633159 3.79900306,9.91782388 L3.79436517,9.67558128 C3.79132394,9.57177827 3.80733605,9.28021169 3.82457987,9.00060244 C5.17376426,8.52185185 5.73397548,7.14637811 5.75848787,7.084563 L5.96880468,6.25357461 L5.96880468,6.25357461 Z M6.85870131,10.1107273 C6.85870131,10.5539109 6.50042828,10.9132865 6.0585364,10.9132865 C5.61667494,10.9132865 5.25841711,10.5539109 5.25841711,10.1107273 C5.25841711,9.66754364 5.61667494,9.30821379 6.0585364,9.30821379 C6.50044348,9.30821379 6.85870131,9.66755889 6.85870131,10.1107273 L6.85870131,10.1107273 Z M10.584598,10.1107273 C10.584598,10.5468799 10.2321185,10.9004751 9.79725186,10.9004751 C9.36244608,10.9004751 9.0099818,10.5468646 9.0099818,10.1107273 C9.0099818,9.67460516 9.36246128,9.32104047 9.79725186,9.32104047 C10.2321337,9.32104047 10.584598,9.67462043 10.584598,10.1107273 L10.584598,10.1107273 Z" id="Shape"></path>
                </g>
            </g>
        </g>
    </g>
</svg>