<?xml version="1.0" encoding="UTF-8" standalone="no"?>
<svg width="25px" height="18px" viewBox="0 0 25 18" version="1.1" xmlns="http://www.w3.org/2000/svg" xmlns:xlink="http://www.w3.org/1999/xlink">
    <!-- Generator: Sketch 40.3 (33839) - http://www.bohemiancoding.com/sketch -->
    <title>ic_game_ticket_seckill</title>
    <desc>Created with Sketch.</desc>
    <defs></defs>
    <g id="代金券秒杀" stroke="none" stroke-width="1" fill="none" fill-rule="evenodd">
        <g id="代金券秒杀入口-2---游戏专区" transform="translate(-23.000000, -323.000000)" fill="#FFFFFF">
            <g id="首充号福利" transform="translate(0.000000, 252.000000)">
                <g id="首充号-copy-2" transform="translate(0.000000, 44.000000)">
                    <g id="Group-7" transform="translate(23.000000, 27.000000)">
                        <path d="M11.3956625,4.55742014 L10.0860531,4.55742014 L8.58633917,8.37972965 L10.0476802,7.99257697 L9.0605445,10.5088961 L7.5992035,10.8960488 L5.2463732,17.9500895 L0.5,18 L1.28902938,15.8462249 L2.34094143,15.8462249 L3.44154577,11.9840275 L1.72285949,12.4193576 L2.70964311,9.90373173 L4.42868144,9.46736179 L6.35507459,4.55672694 L4.80713039,4.55672694 L5.69921376,2.28268153 L7.24715797,2.28268153 L8.04418905,0.250909826 L11.7748155,0.250909826 L10.9777845,2.28268153 L12.2877459,2.28268153 L11.3956625,4.55742014 Z M11.32983,8.67018081 L10.13886,8.67018081 L14.902388,0.372219976 L18.6921582,0.372219976 L14.9305517,6.92782046 L19.3156308,6.92782046 L20.1647646,2.83932182 L17.8042994,2.83932182 L19.2279715,0.372219976 L24.4871797,0.372219976 L22.7392736,8.67018081 L21.5493597,8.67018081 L19.2624719,14.5 L14.5,14.5 L14.6619409,12.4682283 L16.4077347,12.4682283 L17.7363546,9.08124892 L14.9780778,9.08124892 L12.7576167,15.7977009 L20.4371379,15.7977009 L18.5012395,18 L8.08421222,18 L11.32983,8.67018081 Z" id="Shape"></path>
                    </g>
                </g>
            </g>
        </g>
    </g>
</svg>