<svg width="20" height="20" viewBox="0 0 20 20" xmlns="http://www.w3.org/2000/svg" xmlns:xlink="http://www.w3.org/1999/xlink"><title>ic_gameOnGuild</title><defs><path id="b" d="M26 0h20v20H26z"/><path d="M43.04 8.562c-.035-.11-.072-.23-.112-.364-.234-.772-.526-1.734-.994-2.445-.623-.945-1.653-1.549-2.902-1.7C38.648 4.004 36.784 4 36 4c-.784 0-2.648.005-3.032.052-1.248.151-2.278.755-2.901 1.7-.469.711-.76 1.672-1.002 2.467-.036.121-.07.235-.104.342a33.36 33.36 0 0 0-.705 2.5c-.213.924-.61 2.645.424 3.851.498.58 1.2.9 1.976.9.17 0 .341-.015.508-.048 1.153-.216 2.023-.947 2.721-1.633.493-.484 1.063-.714 1.852-.747.071-.002.483-.003.571.002.77.045 1.326.275 1.806.746.7.685 1.569 1.416 2.72 1.632.168.032.34.048.51.048a2.56 2.56 0 0 0 1.975-.9c1.036-1.206.638-2.927.424-3.853-.2-.866-.457-1.713-.704-2.497z" id="a"/><mask id="c" x="0" y="0" width="16" height="11.813" fill="#fff"><use xlink:href="#a"/></mask></defs><g transform="translate(-26)" fill="none" fill-rule="evenodd"><use fill-opacity="0" fill="#D8D8D8" xlink:href="#b"/><use stroke="#1ED282" mask="url(#c)" stroke-width="2.43" fill-opacity=".352" fill="#1ED282" xlink:href="#a"/></g></svg>