<?xml version="1.0" encoding="UTF-8" standalone="no"?>
<svg width="16px" height="16px" viewBox="0 0 16 16" version="1.1" xmlns="http://www.w3.org/2000/svg" xmlns:xlink="http://www.w3.org/1999/xlink">
    <!-- Generator: Sketch 41 (35326) - http://www.bohemiancoding.com/sketch -->
    <title>ic_guild_howmoney</title>
    <desc>Created with Sketch.</desc>
    <defs>
        <linearGradient x1="15.2169409%" y1="0%" x2="88.0661888%" y2="100%" id="linearGradient-1">
            <stop stop-color="#FFE000" offset="0%"></stop>
            <stop stop-color="#FF9300" offset="100%"></stop>
        </linearGradient>
    </defs>
    <g id="Page-1" stroke="none" stroke-width="1" fill="none" fill-rule="evenodd">
        <g id="会长服务号" transform="translate(-16.000000, -530.000000)" fill="url(#linearGradient-1)">
            <g id="Group-12" transform="translate(0.000000, 514.000000)">
                <g id="Group-15" transform="translate(16.000000, 16.000000)">
                    <g id="Group" transform="translate(2.000000, 1.333333)">
                        <path d="M3.31918406,0.792468136 L3.41725681,0.919373131 C3.42348463,0.926619834 3.4278597,0.934869939 3.43457017,0.941559214 L4.34040799,2.11329617 L7.40429774,2.11329617 L8.3118482,0.939552411 C8.31418363,0.936972259 8.31581844,0.933914319 8.31824729,0.931334166 L8.42552166,0.792484058 L8.40725856,0.754323365 C8.4152146,0.722581195 8.42620673,0.691922036 8.42620673,0.657281177 C8.42620673,0.489714978 8.32486438,0.347806915 8.18263632,0.289451004 L8.17022737,0.264175122 C8.17022737,0.264175122 6.96369438,-0.00462201361 5.87234509,6.04744313e-05 C4.8295106,0.00442442778 3.57446282,0.264175122 3.57446282,0.264175122 L3.56236526,0.289196173 C3.41928087,0.346994641 3.31698877,0.489141613 3.31698877,0.657344881 C3.31698877,0.692383915 3.32815216,0.724110164 3.33649745,0.75663275 L3.31918406,0.792468136 Z M7.55222426,2.90183359 L4.44777576,2.90183359 C2.01053022,3.77862159 0,6.55786955 0,9.22105872 C0,12.435794 1.77304752,14 5.99998443,14 C10.2269525,14 12,12.4357941 12,9.22105872 C12,6.55788549 9.98962549,3.77870121 7.55222426,2.90183359 Z M7.66286165,9.24375446 L7.66286165,9.24553826 C7.94334752,9.2474017 8.17024292,9.48284804 8.17024292,9.77359235 C8.17024292,10.064034 7.94334752,10.29956 7.66286165,10.3014235 L6.63165763,10.3019172 L6.63165763,10.8338574 L6.6257412,10.8338574 C6.63369724,10.8751079 6.63829028,10.9181263 6.63829028,10.9622914 C6.63829028,11.3270636 6.35258859,11.6226656 6.00000002,11.6226656 C5.64750487,11.6226656 5.36170977,11.3270636 5.36170977,10.9622914 C5.36170977,10.9181263 5.36631837,10.8751079 5.37427441,10.8338574 L5.3637338,10.8338574 L5.3637338,10.3019172 L4.34305481,10.3019172 L4.34305481,10.3014235 C4.34219848,10.3014235 4.34134215,10.3019172 4.34042355,10.3019172 C4.05844299,10.3019172 3.82975709,10.0650852 3.82975709,9.77359235 C3.82975709,9.48162169 4.05842743,9.24528343 4.34042355,9.24528343 L4.34305481,9.24528343 L4.34305481,9.24375446 L5.3637338,9.24375446 L5.3637338,8.71753195 L4.34305481,8.71753195 L4.34305481,8.71648079 C4.34219848,8.71648079 4.34134215,8.71697451 4.34042355,8.71697451 C4.05844299,8.71697451 3.82975709,8.48022216 3.82975709,8.18872929 C3.82975709,7.89667899 4.05842743,7.66042037 4.34042355,7.66042037 L4.34305481,7.66042037 L4.34305481,7.65936921 L5.27423989,7.65936921 C5.28258518,7.62587508 5.29641096,7.5943718 5.31786584,7.5660539 L4.17220988,6.38093839 C4.03051118,6.23442747 4.07647256,5.94884346 4.2751092,5.74324399 C4.4736057,5.537979 4.74932728,5.49018257 4.89108825,5.6366935 L6.01131909,6.79575271 L7.04845513,5.6519514 C7.21017628,5.46985993 7.53716848,5.51369058 7.73722194,5.72266654 C7.93609211,5.93052761 8.03620447,6.12020025 7.83942063,6.34953069 L6.63335472,7.62507876 C6.63235826,7.63694424 6.63570573,7.64751966 6.63368168,7.65938516 L7.66286165,7.65938516 L7.66286165,7.6606593 C7.94334752,7.6624431 8.17024292,7.89798501 8.17024292,8.18872931 C8.17024292,8.47917101 7.94334752,8.71495182 7.66286165,8.71648079 L7.66286165,8.71753195 L6.63165763,8.71753195 L6.63165763,9.24375446 L7.66286165,9.24375446 Z" id="Combined-Shape"></path>
                    </g>
                </g>
            </g>
        </g>
    </g>
</svg>