<?xml version="1.0" encoding="UTF-8"?>
<svg width="47px" height="59px" viewBox="0 0 47 59" version="1.1" xmlns="http://www.w3.org/2000/svg" xmlns:xlink="http://www.w3.org/1999/xlink">
    <!-- Generator: Sketch 41 (35326) - http://www.bohemiancoding.com/sketch -->
    <title>ic_lock</title>
    <desc>Created with Sketch.</desc>
    <defs>
        <filter x="-50%" y="-50%" width="200%" height="200%" filterUnits="objectBoundingBox" id="filter-1">
            <feOffset dx="0" dy="0" in="SourceAlpha" result="shadowOffsetOuter1"></feOffset>
            <feGaussianBlur stdDeviation="2" in="shadowOffsetOuter1" result="shadowBlurOuter1"></feGaussianBlur>
            <feColorMatrix values="0 0 0 0 0.219607843   0 0 0 0 0.207843137   0 0 0 0 0.0745098039  0 0 0 0.1 0" type="matrix" in="shadowBlurOuter1" result="shadowMatrixOuter1"></feColorMatrix>
            <feMerge>
                <feMergeNode in="shadowMatrixOuter1"></feMergeNode>
                <feMergeNode in="SourceGraphic"></feMergeNode>
            </feMerge>
        </filter>
    </defs>
    <g id="任务系统" stroke="none" stroke-width="1" fill="none" fill-rule="evenodd">
        <g id="新手任务" transform="translate(-153.000000, -965.000000)" fill="#BDBDBD">
            <g id="精英任务空白" filter="url(#filter-1)" transform="translate(8.000000, 792.000000)">
                <g id="L1" transform="translate(0.000000, 153.000000)">
                    <g id="Group-4" transform="translate(47.000000, 20.000000)">
                        <g id="解锁" transform="translate(98.000000, 0.000000)">
                            <g id="ic_lock">
                                <path d="M39.4644951,20.3711043 L38.3117594,20.3711043 L38.3117594,14.8492845 C38.3117594,10.9373989 36.8180327,7.24634839 34.1058444,4.4561289 C31.322121,1.59229774 27.5463626,0.0151849105 23.474196,0.0151849105 C15.1540986,0.0151849105 8.63670026,6.53103219 8.63670026,14.849217 L8.63670026,20.3710368 L7.53557251,20.3710368 C3.39085758,20.3710368 0.0308676461,23.7302271 0.0308676461,27.8739556 L0.0308675801,51.473988 C0.0308675801,55.6177165 3.39085758,58.9769068 7.53557245,58.9769068 L39.4645626,58.9769068 C43.6092775,58.9769068 46.9692675,55.6177164 46.9692675,51.473988 L46.9692675,27.8740231 C46.9691324,23.7302946 43.60921,20.3711043 39.4644951,20.3711043 Z M11.3655733,14.849352 C11.3655733,8.06114162 16.6843021,2.74361107 23.4741284,2.74361107 C26.8026402,2.74361107 29.8833797,4.0270877 32.1487267,6.3576733 C34.3632087,8.63578526 35.5827511,11.6514995 35.5827511,14.849352 L35.5827511,20.3711717 L11.3655733,20.3711718 L11.3655733,14.849352 Z M44.2401918,51.473988 C44.2401918,54.1109061 42.102041,56.2485481 39.4644951,56.2485481 L7.53550492,56.2485481 C4.89795905,56.2485481 2.75980818,54.1109061 2.75980818,51.473988 L2.75980818,27.8740231 C2.75980818,25.2371049 4.89795905,23.0994629 7.53550492,23.0994629 L39.4644951,23.0994629 C42.102041,23.0994629 44.2401918,25.2371049 44.2401918,27.8740231 L44.2401918,51.473988 Z" id="Shape"></path>
                                <path d="M23.3635496,34.1491805 C22.609965,34.1491805 21.9990455,34.7599547 21.9990455,35.5133599 L21.9990455,42.7434428 C21.9990455,43.4967805 22.609965,44.1076221 23.3635496,44.1076221 C24.1171341,44.1076221 24.7280536,43.496848 24.7280536,42.7434428 L24.7280537,35.5132923 C24.7279861,34.7599547 24.1171341,34.1491805 23.3635496,34.1491805 Z" id="Shape"></path>
                            </g>
                        </g>
                    </g>
                </g>
            </g>
        </g>
    </g>
</svg>