<svg width="20" height="20" viewBox="0 0 20 20" xmlns="http://www.w3.org/2000/svg" xmlns:xlink="http://www.w3.org/1999/xlink"><title>ic_specialGift</title><defs><rect id="a" x=".406" y="3.25" width="12.188" height="3.25" rx=".81"/><mask id="e" x="0" y="0" width="12.188" height="3.25" fill="#fff"><use xlink:href="#a"/></mask><rect id="b" x="2.031" y="5.281" width="8.938" height="7.719" rx=".81"/><mask id="f" x="0" y="0" width="8.938" height="7.719" fill="#fff"><use xlink:href="#b"/></mask><path d="M6.653 3.105c-.526-.501.434-2.228.96-2.73a1.395 1.395 0 0 1 1.905 0 1.24 1.24 0 0 1 0 1.815c-.526.501-2.34 1.416-2.865.915" id="c"/><mask id="g" x="0" y="0" width="3.412" height="3.25" fill="#fff"><use xlink:href="#c"/></mask><path d="M6.51 3.105c.526-.501-.434-2.228-.96-2.73a1.395 1.395 0 0 0-1.905 0 1.24 1.24 0 0 0 0 1.815c.526.501 2.339 1.416 2.865.915" id="d"/><mask id="h" x="0" y="0" width="3.412" height="3.25" fill="#fff"><use xlink:href="#d"/></mask><path id="i" d="M0 0h20v20H0z"/></defs><g fill="none" fill-rule="evenodd"><g transform="translate(4 3)" fill="#BA80F3"><use stroke="#BA80F3" mask="url(#e)" stroke-width="2.43" fill-opacity=".47" xlink:href="#a"/><use stroke="#BA80F3" mask="url(#f)" stroke-width="2.43" fill-opacity=".47" xlink:href="#b"/><path d="M6.094 6.5h.813v5.688h-.813z"/><use stroke="#BA80F3" mask="url(#g)" stroke-width="1.62" fill-opacity=".47" xlink:href="#c"/><use stroke="#BA80F3" mask="url(#h)" stroke-width="1.62" fill-opacity=".47" xlink:href="#d"/></g><use fill-opacity="0" fill="#D8D8D8" xlink:href="#i"/></g></svg>