<svg width="33" height="33" viewBox="0 0 33 33" xmlns="http://www.w3.org/2000/svg" xmlns:xlink="http://www.w3.org/1999/xlink"><title>icon_loading_logo_02</title><defs><path id="a" d="M0 .007h32.994V32.97H0V.007z"/></defs><g fill="none" fill-rule="evenodd"><mask id="b" fill="#fff"><use xlink:href="#a"/></mask><path d="M29.026 5.77l-1.08 1.08c4.701 5.564 4.7 13.743 0 19.306l1.08 1.08c5.29-6.164 5.291-15.302 0-21.465zM6.846 27.952l-1.08 1.08c6.292 5.4 15.685 5.291 21.847-.335l-1.076-1.078c-5.566 5.035-13.999 5.144-19.691.333zM5.383 6.465L4.306 5.388c-5.741 6.289-5.742 15.943 0 22.23l1.077-1.076C.235 20.85.235 12.157 5.383 6.465zm.383-2.488l1.08 1.079c5.692-4.81 14.126-4.702 19.69.333l1.078-1.078c-6.162-5.627-15.556-5.736-21.848-.334z" fill="#0BB75B" mask="url(#b)"/></g></svg>