<svg width="23" height="23" viewBox="0 0 23 23" xmlns="http://www.w3.org/2000/svg"><title>icon_t_group</title><path d="M5.445 7.86a1.035 1.035 0 1 1 0 2.07 1.035 1.035 0 0 1 0-2.07zm4.14 0a1.035 1.035 0 1 1 0 2.07 1.035 1.035 0 0 1 0-2.07zm4.14 0a1.035 1.035 0 1 1 0 2.07 1.035 1.035 0 0 1 0-2.07zM7.61 16.648c.536.087 1.755.182 2.32.182 4.954 0 8.28-3.687 8.28-8.021C18.21 4.474 14.054.96 9.93.96 4.97.96.96 4.474.96 8.809c0 2.511.957 4.643 2.76 6.178V18.9l3.89-2.252zm11.945-9.382l.035.594c.006.564 0 .512 0 1.035 0 5.503-4.336 9.315-10.35 9.315H7.17c1.642 1.606 3.553 2.587 6.21 2.587.565 0 1.116-.05 1.653-.138L18.9 23.04v-3.913c2.098-1.437 3.45-3.667 3.45-6.178 0-2.239-1.077-4.253-2.795-5.683z" fill="#3AC76D" fill-rule="evenodd"/></svg>