<svg xmlns="http://www.w3.org/2000/svg" width="53" height="50" viewBox="0 0 53 50"><defs><style>.cls-1{filter:url(#filter)}.cls-2,.cls-3{fill-rule:evenodd}.cls-2{stroke:#535353;stroke-width:3px;fill:none}.cls-3{fill:#535353}</style><filter id="filter" filterUnits="userSpaceOnUse"><feFlood result="flood" flood-color="#ffc028"/><feComposite result="composite" operator="in" in2="SourceGraphic"/><feBlend result="blend" in2="SourceGraphic"/></filter></defs><g id="空间" class="cls-1"><path id="形状_4" data-name="形状 4" class="cls-2" d="M295 1043.21a1.093 1.093 0 0 1-.338.79l-10.978 11.24 2.183 15.5h-.008a1.089 1.089 0 0 1 .015.16 1.108 1.108 0 0 1-1.119 1.1 1.229 1.229 0 0 1-.544-.14l-14.221-6.81-14.248 6.82a1.147 1.147 0 0 1-.523.13 1.108 1.108 0 0 1-1.119-1.1 1.089 1.089 0 0 1 .015-.16l.009-.06v-.01l2.174-15.43-10.972-11.23s.006-.01.01-.01a1.092 1.092 0 0 1-.337-.79 1.113 1.113 0 0 1 .989-1.09v-.01l15.542-2.73 7.481-13.81a.011.011 0 0 0 .012.01 1.125 1.125 0 0 1 .977-.58 1.111 1.111 0 0 1 1.037.69l7.418 13.69 15.555 2.73a.034.034 0 0 0 0 .01 1.113 1.113 0 0 1 .99 1.09z" transform="translate(-243.5 -1023.5)"/><path id="形状_38" data-name="形状 38" class="cls-3" d="M258.612 1047.3s11.449-1.77 18.859-.78c0 0-8.676 8.08-9.746 8.99a101.723 101.723 0 0 0 11.983.78s-6.908 2.11-17.737.39c0 0 7.285-6.2 11.025-8.69.004 0-5.543-.39-14.384-.69z" transform="translate(-243.5 -1023.5)"/></g></svg>