<svg width="24" height="24" viewBox="0 0 24 24" xmlns="http://www.w3.org/2000/svg"><title>icon_game_circle</title><path d="M4.493 15.333a2.66 2.66 0 0 1 1.354-2.708c1.286-.712 2.896-.265 3.596.999.7 1.263.227 2.866-1.058 3.578a2.66 2.66 0 0 1-3.026-.296 7.712 7.712 0 0 0 4.958 3.108c.525.092.868.59.767 1.112a.983.983 0 0 1-1.133.776c-2.857-.504-5.34-2.234-6.76-4.796a9.583 9.583 0 0 1-.628-7.896.983.983 0 0 1 1.236-.6c.503.17.766.715.587 1.217a7.701 7.701 0 0 0 .107 5.506zm14.064 1.777a2.66 2.66 0 0 1-3.025.24c-1.273-.735-1.719-2.345-.996-3.597.722-1.251 2.34-1.67 3.612-.935a2.66 2.66 0 0 1 1.308 2.727c.79-1.846.817-3.92.092-5.808a.944.944 0 0 1 .558-1.231.983.983 0 0 1 1.25.571c1.039 2.71.835 5.728-.63 8.265a9.586 9.586 0 0 1-6.444 4.606.983.983 0 0 1-1.151-.75.944.944 0 0 1 .74-1.131 7.7 7.7 0 0 0 4.686-2.957zM12.87 3.984a2.658 2.658 0 0 1 1.82 2.535c0 1.47-1.172 2.661-2.617 2.661S9.456 7.99 9.456 6.52c0-1.187.764-2.193 1.82-2.536a7.71 7.71 0 0 0-5.2 2.839.944.944 0 0 1-1.345.132.983.983 0 0 1-.13-1.368C6.427 3.333 9.144 2 12.073 2a9.58 9.58 0 0 1 7.21 3.278.983.983 0 0 1-.074 1.372.944.944 0 0 1-1.349-.076 7.699 7.699 0 0 0-4.99-2.59z" fill-rule="evenodd"/></svg>