<svg width="200" height="200" viewBox="0 0 200 200" xmlns="http://www.w3.org/2000/svg"><defs><style>@font-face{font-family:ifont;src:url(//at.alicdn.com/t/font_1442373896_4754455.eot?#iefix) format(&quot;embedded-opentype&quot;),url(//at.alicdn.com/t/font_1442373896_4754455.woff) format(&quot;woff&quot;),url(//at.alicdn.com/t/font_1442373896_4754455.ttf) format(&quot;truetype&quot;),url(//at.alicdn.com/t/font_1442373896_4754455.svg#ifont) format(&quot;svg&quot;)}</style></defs><path d="M170.324 169.056l-1.767 1.766c-.976.976-3.28.256-5.144-1.61l-35.916-35.916-.019.015-5.42-5.42c.018-.091-.021-.193.06-.275l1.01-.468c10.1-9.143 16.482-22.315 16.482-37.01 0-27.599-22.374-49.97-49.972-49.97-27.599 0-49.972 22.371-49.972 49.97 0 27.597 22.373 49.97 49.972 49.97 5.614 0 10.988-.97 16.02-2.683l3.05 6.862c-5.97 2.116-12.37 3.317-19.07 3.317-31.738 0-57.467-25.729-57.467-57.466 0-31.739 25.73-57.468 57.467-57.468 31.738 0 57.467 25.729 57.467 57.468 0 14.519-5.427 27.742-14.309 37.858l35.918 35.916c1.863 1.865 2.585 4.168 1.61 5.144z" fill="#272636" class="transform-group"/></svg>