<svg width="200" height="200" viewBox="0 0 200 200" xmlns="http://www.w3.org/2000/svg"><defs><style>@font-face{font-family:ifont;src:url(http://at.alicdn.com/t/font_1442373896_4754455.eot?#iefix) format(&quot;embedded-opentype&quot;),url(http://at.alicdn.com/t/font_1442373896_4754455.woff) format(&quot;woff&quot;),url(http://at.alicdn.com/t/font_1442373896_4754455.ttf) format(&quot;truetype&quot;),url(http://at.alicdn.com/t/font_1442373896_4754455.svg#ifont) format(&quot;svg&quot;)}</style></defs><path d="M123.549 11.09c16.682-8.492 37.475-4.653 50.089 10.533 12.124 14.587 12.949 35.139 3.36 50.476-2.396.01-4.901-.414-7.463-1.194-10.16-3.101-20.79-11.627-29.338-22.145-8.567-10.545-14.859-22.842-16.332-33.47a33.462 33.462 0 0 1-.316-4.2zM39.32 127.778c-.132 7.55 3.59 11.716 10.704 12.873l78.297-53.867c-10.813-7.007-20.02-18.536-24.794-30.673L39.32 127.778zm2.558 17.092c-6.507 6.954-8.48 14.154-6.94 19.534a10.745 10.745 0 0 0 3.666 5.5c1.887 1.507 4.435 2.494 7.547 2.766 10.609.92 26.475-6.085 45.01-27.355 18.646-21.387 35.435-31.526 49.19-34 8.326-1.497 15.638-.25 21.7 3.016 6.063 3.263 10.772 8.523 13.906 15.063 4.891 10.217 5.912 23.61 2.178 37.21l-10.877-3.123c2.961-10.835 2.276-21.278-1.431-29.01-2.084-4.35-5.143-7.809-9.035-9.903-3.906-2.092-8.763-2.864-14.49-1.832-11.465 2.061-25.933 11.062-42.679 30.28-21.313 24.446-40.772 32.395-54.403 31.204-5.358-.467-9.935-2.32-13.526-5.153-3.699-2.927-6.291-6.876-7.592-11.453-2.591-9.076.054-20.53 9.63-30.757l8.146 8.013zm128.817-65.323c-12.656-4.283-25.314-14.391-35.25-26.613-9.045-11.117-16.008-24.175-18.815-36.321-7.441 9.37-10.456 21.387-8.82 32.915 4.544 13.992 16.344 28.49 29.5 34.672 11.032 3.266 23.201 1.812 33.385-4.653z" fill="#272636" class="transform-group"/></svg>