<svg width="17" height="16" viewBox="0 0 17 16" xmlns="http://www.w3.org/2000/svg"><title>icon_post</title><g fill="#EDD49B" fill-rule="evenodd"><path d="M14.344 7.798v5.175c0 .955-.801 1.73-1.79 1.73H3.133c-.989 0-1.79-.775-1.79-1.73V3.892c0-.955.801-1.73 1.79-1.73H9.22L10.562.865H2.684C1.202.865 0 2.026 0 3.459v9.946C0 14.838 1.202 16 2.684 16h10.29c1.482 0 2.684-1.162 2.684-2.595V6.527l-1.314 1.27"/><path d="M5.43 11.004l1.865-.54-1.273-1.23-.591 1.77zM16.663.952L15.87.186a.354.354 0 0 0-.49.003l-.984.953a.326.326 0 0 0-.004.472l.793.766c.134.13.353.128.489-.003l.985-.953a.327.327 0 0 0 .003-.472zM6.27 8.996l1.278 1.236 7.634-7.38-1.278-1.235-7.634 7.38z"/></g></svg>