<svg width="17" height="20" viewBox="0 0 17 20" xmlns="http://www.w3.org/2000/svg"><title>icon_share_qq</title><path d="M15.61 13.974a6.35 6.35 0 0 1-.371-.659l-.304-.607a.33.33 0 0 0-.603-.004.037.037 0 0 1-.004-.003l-.252.675a5.407 5.407 0 0 1-1.327 2.013c.006.003.01.009.016.012a.779.779 0 0 0-.326.63c0 .368.257.674.603.76l-.007.012c.584.178.825.405.85.478l-.004.049.004.04c-.037.253-.823.818-2.25.818-1.556 0-2.396-.505-2.468-.705l-.001-.004c-.002 0-.003.001-.004.003a.787.787 0 0 0-1.421-.1l-.003-.002-.018.037c-.156.32-.95.771-2.229.771-1.51 0-2.414-.495-2.468-.693 0 0 .005-.017.03-.05l.058-.072.033-.085c.037-.096.305-.325.898-.498l-.002-.003a.786.786 0 0 0 .588-.756.78.78 0 0 0-.318-.625l.01-.007a5.53 5.53 0 0 1-1.386-2.04l-.25-.65h-.001v-.001a.33.33 0 0 0-.604-.004l-.003-.002-.302.605c-.15.299-.274.512-.374.663-.529-1.65.735-3.557 1.021-3.96 0 0 .059-.241.13-.361.071-.12-.007-.183-.007-.183.031-.29.137-.872.49-1.374l.093-.03.199-.475-.03-.159c-.023-2.017.547-3.662 1.65-4.76C5.859 1.76 7.14 1.24 8.465 1.24c1.549 0 2.92.541 3.863 1.524 1.056 1.101 1.532 2.744 1.41 4.755l-.005.055.177.637.088.02c.213.475.386.945.444 1.2 0 0-.106.023-.044.204.06.181.15.406.15.406.407.56 1.568 2.356 1.064 3.933zm.113-4.446c-.033-.615-.458-1.577-.698-2.076.112-2.296-.501-4.208-1.776-5.538C12.065.68 10.366 0 8.464 0c-1.66 0-3.27.655-4.418 1.797C2.72 3.117 2.025 5.03 2.03 7.335c-.592.81-.726 1.732-.757 2.124-.643.954-2.084 3.527-.68 5.739l.03.047.037.04a.805.805 0 0 0 .587.247c.36 0 .695-.205 1.038-.646.21.344.45.668.718.97-.489.237-.833.543-1.004.901a1.273 1.273 0 0 0-.241.73c0 1.275 1.877 1.942 3.732 1.942 1.229 0 2.29-.338 2.917-.897l.02.002h.006c.71.613 2.009.895 3.2.895 2.005 0 3.517-.894 3.517-2.078v-.066c0-.57-.4-1.07-1.11-1.42.26-.3.493-.62.695-.96.34.431.672.631 1.026.631a.806.806 0 0 0 .588-.246l.037-.041.03-.046c1.375-2.166-.025-4.688-.694-5.675z" fill="#499FEF" fill-rule="evenodd"/></svg>