<svg width="16" height="15" viewBox="0 0 16 15" xmlns="http://www.w3.org/2000/svg"><title>icon_crown</title><path d="M15.61 3.783a1.339 1.339 0 0 0-.943-.397c-.35 0-.696.146-.943.397a1.38 1.38 0 0 0-.39.958c0 .313.112.625.309.867l-2.976 2.519L8.495 2.61c.167-.068.32-.17.448-.299.246-.25.39-.603.39-.958 0-.354-.144-.706-.39-.957A1.34 1.34 0 0 0 8 0c-.35 0-.696.146-.943.397-.247.25-.39.603-.39.957 0 .355.143.708.39.958.127.13.281.23.448.299L5.333 8.127l-2.976-2.52c.197-.241.31-.553.31-.866 0-.355-.144-.707-.39-.958a1.338 1.338 0 0 0-.944-.397c-.349 0-.696.146-.942.397A1.38 1.38 0 0 0 0 4.741c0 .354.144.706.39.957a1.339 1.339 0 0 0 1.196.372l1.147 6.035h10.534l1.147-6.035a1.339 1.339 0 0 0 1.195-.371c.247-.252.391-.604.391-.958 0-.355-.144-.707-.39-.958zM2.666 14.222h10.666v-1.44H2.667v1.44z" fill="#EDD49B" fill-rule="evenodd"/></svg>