<svg width="23" height="23" viewBox="0 0 23 23" xmlns="http://www.w3.org/2000/svg"><title>icon_loading_logo_01</title><path d="M11.5.08C2.325.08.074 7.167.074 10.545c0 9.93 11.837 12.381 17.71 12.381h.136a.238.238 0 0 0 .152-.42l-1.729-1.456a.483.483 0 0 1 .14-.82l-.227.088c3.717-1.472 6.665-4.994 6.665-9.773 0-3.378-2.2-10.465-11.423-10.465M4.85 8.665a.948.948 0 0 1-.28-1.852l-.001-.003a7.266 7.266 0 0 1 2.183-.334c.77 0 1.512.12 2.209.342l-.001.004a.947.947 0 0 1-.587 1.8v.002a5.357 5.357 0 0 0-3.21-.01l-.002-.003a.936.936 0 0 1-.312.054m9.505.01a.948.948 0 0 1-.28-1.852V6.82a7.26 7.26 0 0 1 2.183-.334c.77 0 1.512.12 2.209.341l-.001.005a.947.947 0 0 1-.587 1.8v.002a5.356 5.356 0 0 0-3.211-.01l-.001-.003a.933.933 0 0 1-.312.054m.961 4.743a.944.944 0 0 1-.945-.943V10.57a.944.944 0 0 1 1.89 0v1.904a.944.944 0 0 1-.945.943m-7.612 0a.943.943 0 0 1-.944-.943V10.57a.943.943 0 0 1 1.889 0v1.904a.944.944 0 0 1-.945.943" fill-opacity=".3" fill="#0BB75B" fill-rule="evenodd"/></svg>