<svg width="45" height="45" viewBox="0 0 45 45" xmlns="http://www.w3.org/2000/svg"><title>icon_vote_success</title><path d="M13.168 18.079l-3.124 3.124 10.043 10.044 22.32-22.32-3.125-3.124-19.195 19.194-6.919-6.918zm27.006 4.24c0 9.82-8.034 17.855-17.855 17.855-9.82 0-17.855-8.034-17.855-17.855 0-9.82 8.035-17.855 17.855-17.855 1.786 0 3.348.223 4.91.67L30.8 1.561C28.122.67 25.22 0 22.32 0 10.043 0 0 10.044 0 22.32c0 12.275 10.044 22.318 22.32 22.318 12.275 0 22.318-10.043 22.318-22.319h-4.464z" fill="#EDD49B" fill-rule="evenodd"/></svg>