<svg width="20" height="16" viewBox="0 0 20 16" xmlns="http://www.w3.org/2000/svg"><title>icon_share</title><g fill="#EDD49B" fill-rule="evenodd"><path d="M17.937 10.697v1.986c0 1.104-.927 1.999-2.07 1.999H3.459c-1.142 0-2.069-.895-2.069-2V5.997c0-1.105.927-2 2.07-2h1.75l1.38-1.334H2.759C1.235 2.662 0 3.856 0 5.329v8.004C0 14.806 1.235 16 2.759 16h13.799c1.523 0 2.759-1.194 2.759-2.667v-3.97l-1.38 1.334"/><path d="M19.382 3.877c0-.48-.223-.906-.57-1.2l.006-.003L16.154.326c-.21-.202-.592-.16-.8.042l-.11.105c-.209.202-.252.572-.043.774l2.355 2.076-5.518.01c-1.495.005-3.04 1.135-3.451 2.524L7.003 11.19l.034.01c-.014.039-.034.073-.04.115a.634.634 0 0 0 .566.701.647.647 0 0 0 .725-.547v-.011l1.459-4.81c.466-1.415 1.09-1.989 2.718-1.989h4.903l-2.2 2.149c-.21.202-.167.572.042.774l.109.106c.21.202.592.244.802.041l2.764-2.698c-.004-.001-.006-.004-.01-.006.312-.29.507-.697.507-1.15"/></g></svg>