<svg width="23" height="20" viewBox="0 0 23 20" xmlns="http://www.w3.org/2000/svg"><title>icon_share_wechat</title><path d="M17.845 10.204a.805.805 0 0 0-.793.816c0 .451.355.817.793.817a.805.805 0 0 0 .793-.817.805.805 0 0 0-.793-.816zm-4.362 0a.805.805 0 0 0-.793.816c0 .451.355.817.793.817a.805.805 0 0 0 .793-.817.805.805 0 0 0-.793-.816zm7.251 4.965c-.02.026-.042.049-.063.074-.09.11-.182.22-.284.326l-.02.018c-.119.12-.244.237-.38.348l-.025.025-.21.177.004.019-.027.026.49 2.3-1.967-1.167-.267.072c-.572.153-1.333.142-1.9.142-.727 0-1.46-.136-2.158-.373-1.417-.52-2.73-1.494-3.43-2.61l-.054-.026c-.378-.616-.601-1.289-.601-1.987 0-2.665 2.78-5.091 6.046-5.022a6.66 6.66 0 0 1 3.55 1.112c.065.045.129.09.19.137l.112.084c1.143.899 1.893 2.152 1.893 3.532 0 .975-.253 1.863-.782 2.626-.04.055-.074.113-.117.167zm-13.741-.91l-.188-.037-3.323 1.416.692-2.418-.402-.268c-1.5-.905-2.661-3.148-2.661-5.151 0-3.632 3.303-6.643 7.778-6.643 3.844 0 6.839 2.263 7.568 5.278a7.798 7.798 0 0 0-.597-.027c-3.798 0-7.046 2.78-7.046 6.068 0 .74.172 1.45.47 2.107-.754-.02-1.526-.175-2.291-.325zm14.345 4.95l-.427-2.639c1.16-1.12 1.796-2.556 1.796-4.093 0-1.15-.37-2.221-.999-3.138a4.305 4.305 0 0 0-.095-.14 6.679 6.679 0 0 0-.797-.896c-.05-.047-.098-.095-.15-.14a6.844 6.844 0 0 0-.434-.35c-.041-.031-.085-.059-.128-.088a6.714 6.714 0 0 0-.356-.236c-.062-.038-.125-.074-.188-.11a7.19 7.19 0 0 0-.336-.181l-.198-.096a8.017 8.017 0 0 0-.396-.17l-.15-.06a7.66 7.66 0 0 0-.615-.201C17.21 2.836 13.435 0 8.875 0 3.864 0 0 3.588 0 7.838c0 2.267.898 4.384 2.856 5.873l-.75 2.744c.005 0 .008.003.012.005-.004.027-.008.054-.008.082 0 .32.254.58.567.58a.55.55 0 0 0 .158-.026l.002.002.034-.014c.012-.004.025-.008.037-.014l4.079-1.566a10.55 10.55 0 0 0 2.884.124c1.032 1.441 2.7 2.424 4.59 2.735.021.004.044.005.065.01.126.019.253.036.38.05.314.037.63.064.954.064.591 0 1.158-.086 1.724-.218l1.751.96 1.135.633c.005-.008.012-.015.018-.022.087.056.19.09.302.09a.56.56 0 0 0 .534-.715l.014-.006zM5.75 4.489c-.548 0-.991.458-.991 1.021 0 .564.443 1.02.991 1.02s.991-.456.991-1.02c0-.563-.443-1.02-.991-1.02zm5.552 2.042c.547 0 .991-.457.991-1.02 0-.564-.444-1.021-.991-1.021-.548 0-.992.457-.992 1.02 0 .564.444 1.02.992 1.02z" fill="#4CD68A" fill-rule="evenodd"/></svg>