<svg width="18" height="18" viewBox="0 0 18 18" xmlns="http://www.w3.org/2000/svg"><title>icon_share_friends</title><path d="M12.248 16.039l-3.836-3.836.122.019v.036h7.5a7.777 7.777 0 0 1-3.786 3.78zm-5.886.25v-5.381c.158.218.341.418.548.59l4.773 4.774A7.724 7.724 0 0 1 9 16.758a7.72 7.72 0 0 1-2.638-.47zm-4.4-4.04l3.835-3.837A3.274 3.274 0 0 0 5.742 9v7.034a7.775 7.775 0 0 1-3.78-3.786zm-.25-5.887h5.38a3.26 3.26 0 0 0-.655.63l-.008-.01-4.7 4.702A7.724 7.724 0 0 1 1.24 9c0-.928.171-1.813.47-2.638zm3.935-4.35l3.757 3.757A3.324 3.324 0 0 0 9 5.74c-.105 0-.208.006-.31.016V5.74H1.966a7.779 7.779 0 0 1 3.68-3.73zm5.99-.3v5.38a3.269 3.269 0 0 0-1.047-.935L6.203 1.769A7.726 7.726 0 0 1 9 1.242c.928 0 1.813.17 2.638.47zm4.352 3.935L12.23 9.405c.016-.133.027-.268.027-.405V1.966a7.775 7.775 0 0 1 3.73 3.68zm-4.147 4.944l4.389-4.388A7.73 7.73 0 0 1 16.758 9c0 .928-.17 1.813-.47 2.638h-5.38c.382-.277.702-.633.934-1.047zm-4.86-1.59a2.017 2.017 0 1 1 4.036 0 2.017 2.017 0 0 1-4.035 0zM9 0a9 9 0 0 0-9 9 9 9 0 0 0 9 9A9 9 0 1 0 9 0z" fill="#74E079" fill-rule="evenodd"/></svg>